<svg width="360" height="313" viewBox="0 0 360 313" fill="none" xmlns="http://www.w3.org/2000/svg">
<g clip-path="url(#clip0_126_1480)">
<path d="M298.43 61.56C274.73 48.86 258.04 57.15 258.04 57.15C258.04 57.15 234.17 96.28 234.17 103.12C234.17 142.34 202.38 174.13 163.16 174.13C149.23 174.13 136.23 170.12 125.27 163.19L118.56 166.33C46.48 210.64 49.42 310.6 49.42 310.6H282.16C283.85 258.64 252.99 255.41 259.76 202.25C264.5 165.08 290.29 101.53 298.43 61.56Z" fill="white"/>
<path d="M163.15 174.13C202.368 174.13 234.16 142.338 234.16 103.12C234.16 63.9022 202.368 32.11 163.15 32.11C123.932 32.11 92.14 63.9022 92.14 103.12C92.14 142.338 123.932 174.13 163.15 174.13Z" fill="#FFF2EB"/>
<path d="M163.15 176.13C122.89 176.13 90.14 143.38 90.14 103.12C90.14 62.86 122.89 30.11 163.15 30.11C203.41 30.11 236.16 62.86 236.16 103.12C236.16 143.38 203.41 176.13 163.15 176.13ZM163.15 34.11C125.1 34.11 94.14 65.07 94.14 103.12C94.14 141.17 125.1 172.13 163.15 172.13C201.2 172.13 232.16 141.17 232.16 103.12C232.16 65.07 201.2 34.11 163.15 34.11Z" fill="#424242"/>
<path d="M298.43 61.5601C301.93 44.3601 302.17 31.5301 296.06 27.0501C275.73 12.16 281.58 35.4001 272.72 39.0801C266.26 41.7601 266.66 21.4201 256.34 27.9901C246.02 34.5601 258.03 57.1501 258.03 57.1501C258.03 57.1501 274.72 48.8601 298.42 61.5601H298.43Z" fill="#FFF2EB"/>
<path d="M299.85 64.59L297.48 63.32C285.76 57.04 275.9 56.18 269.7 56.57C262.98 56.99 258.96 58.92 258.92 58.94L257.18 59.79L256.27 58.09C255.74 57.1 243.52 33.78 255.27 26.3C257.61 24.81 259.81 24.34 261.79 24.91C265.23 25.89 267.01 29.58 268.59 32.84C270.2 36.18 271.07 37.59 271.96 37.23C274.26 36.27 275.36 33.11 276.52 29.75C277.9 25.77 279.32 21.66 283.24 20.44C286.68 19.37 291.13 20.95 297.25 25.43C303.54 30.03 304.54 41.64 300.4 61.95L299.86 64.58L299.85 64.59ZM272.33 52.46C278.92 52.46 287.34 53.85 296.98 58.57C300.1 42.02 299.39 31.97 294.88 28.66C288.81 24.22 285.85 23.81 284.43 24.26C282.44 24.88 281.4 27.88 280.3 31.06C278.96 34.91 277.45 39.28 273.49 40.92C268.95 42.8 266.66 38.05 264.98 34.57C263.77 32.07 262.4 29.23 260.69 28.75C259.86 28.51 258.75 28.82 257.42 29.67C250.82 33.87 255.75 47.83 258.99 54.59C261.39 53.73 266.02 52.45 272.33 52.45V52.46Z" fill="#424242"/>
<path d="M153.69 223.91C163.57 270.22 161.88 310.6 161.88 310.6H49.42C49.42 310.6 52.51 241.32 81.4 199.88C91.91 184.81 106.4 171.26 125.27 163.19C128.56 161.78 138.61 170 142.5 170C149.38 170 153.7 223.9 153.7 223.9L153.69 223.91Z" fill="#10132B"/>
<path opacity="0.2" d="M163.15 175.63C149.4 175.63 136.02 171.76 124.46 164.45C123.76 164.01 123.55 163.08 123.99 162.38C124.43 161.68 125.36 161.47 126.06 161.91C137.14 168.92 149.97 172.62 163.15 172.62C163.98 172.62 164.65 173.29 164.65 174.12C164.65 174.95 163.98 175.62 163.15 175.62V175.63Z" fill="black"/>
<path d="M147.39 61.65C147.7 65.78 197.41 47.22 200.61 10.1C201.04 5.12005 196.56 1.10005 191.67 2.17005C175.79 5.67005 144.18 18.12 147.39 61.65Z" fill="#E1580C"/>
<path d="M148.64 64.22H148.61C145.72 64.2 145.43 62.2 145.4 61.8C142.02 16.08 176.33 3.50999 191.24 0.219994C194.17 -0.430006 197.15 0.339994 199.41 2.32999C201.7 4.33999 202.86 7.23999 202.6 10.28C199.56 45.6 156.75 64.22 148.64 64.22ZM193.26 3.99999C192.88 3.99999 192.49 4.03999 192.1 4.12999C175.03 7.88999 146.96 20.17 149.3 60.2C152.79 59.78 163.77 55.84 175.04 47.38C184.97 39.92 197.11 27.37 198.62 9.93999C198.77 8.17999 198.1 6.49999 196.78 5.33999C195.79 4.46999 194.55 4.00999 193.27 4.00999L193.26 3.99999Z" fill="#424242"/>
<path d="M142.13 102.2C145.77 102.2 148.72 99.2496 148.72 95.61C148.72 91.9705 145.77 89.02 142.13 89.02C138.49 89.02 135.54 91.9705 135.54 95.61C135.54 99.2496 138.49 102.2 142.13 102.2Z" fill="#424242"/>
<path d="M181.59 102.2C185.23 102.2 188.18 99.2496 188.18 95.61C188.18 91.9705 185.23 89.02 181.59 89.02C177.95 89.02 175 91.9705 175 95.61C175 99.2496 177.95 102.2 181.59 102.2Z" fill="#424242"/>
<path d="M151.39 108.71H173.05C176.13 108.71 178.38 111.69 177.46 114.62C175.96 119.38 172.11 125.28 162.22 125.28C152.33 125.28 148.48 119.38 146.98 114.62C146.06 111.69 148.31 108.71 151.39 108.71Z" fill="#F2BDA5"/>
<path d="M162.22 127.27C150.61 127.27 146.5 119.72 145.08 115.21C144.45 113.22 144.81 111.11 146.05 109.41C147.3 107.71 149.29 106.7 151.4 106.7H173.06C175.16 106.7 177.16 107.71 178.41 109.41C179.65 111.1 180.01 113.22 179.38 115.21C177.96 119.71 173.85 127.26 162.24 127.26L162.22 127.27ZM151.39 110.7C150.54 110.7 149.77 111.09 149.27 111.78C148.79 112.44 148.65 113.25 148.89 114.01C150.83 120.15 155.31 123.27 162.22 123.27C169.13 123.27 173.61 120.16 175.55 114.01C175.79 113.25 175.65 112.43 175.17 111.78C174.67 111.1 173.9 110.7 173.05 110.7H151.39Z" fill="#424242"/>
<path d="M297.48 63.32C285.76 57.04 275.9 56.18 269.7 56.57C262.98 56.99 258.96 58.92 258.92 58.94L257.15 55.36C257.87 55 275.05 46.76 299.38 59.8L297.49 63.33L297.48 63.32Z" fill="#424242"/>
<path d="M118.734 311.474C117.654 311.474 116.774 310.624 116.734 309.534C115.064 257.824 106.134 214.834 106.044 214.414C105.814 213.334 106.504 212.274 107.584 212.044C108.674 211.814 109.724 212.504 109.954 213.584C110.044 214.014 119.044 257.324 120.724 309.404C120.764 310.504 119.894 311.434 118.794 311.464C118.774 311.464 118.754 311.464 118.724 311.464L118.734 311.474Z" fill="#353852"/>
<path d="M208.97 155.47C208.97 155.47 199.61 176.46 208.97 224.89C218.33 273.32 226.8 310.6 226.8 310.6H280C281.69 258.64 250.83 255.41 257.6 202.25C262.34 165.08 292.86 98.97 301 59C277.3 46.3 255.88 57.1499 255.88 57.1499C255.88 57.1499 232.01 96.2799 232.01 103.12C232.01 103.12 222.84 125.28 213.92 147.13" fill="#10132B"/>
<path d="M226.79 310.6C226.79 310.6 218.32 273.32 208.96 224.89Z" fill="#1E1C1B"/>
<path d="M408.22 308.1H-48V313.1H408.22V308.1Z" fill="#353852"/>
</g>
<defs>
<clipPath id="clip0_126_1480">
<rect width="360" height="313" fill="white"/>
</clipPath>
</defs>
</svg>
