<svg width="360" height="780" viewBox="0 0 360 780" fill="none" xmlns="http://www.w3.org/2000/svg">
<g clip-path="url(#clip0_76_3371)">
<rect width="360" height="780" fill="#001359"/>
<rect y="445" width="360" height="335" fill="#0030DF"/>
<g clip-path="url(#clip1_76_3371)">
<path d="M0 497C29.9995 497 29.9995 510.116 59.9989 510.116C89.9984 510.116 89.9984 497 119.998 497C149.997 497 149.997 510.116 179.997 510.116C209.996 510.116 209.996 497 239.996 497C269.995 497 269.995 510.116 299.995 510.116C329.994 510.116 329.994 497 360 497V578H0V497Z" fill="#0030DF"/>
</g>
<path opacity="0.2" d="M26 510H118" stroke="white"/>
<path opacity="0.2" d="M149 546H241" stroke="white"/>
<path opacity="0.2" d="M248 474H340" stroke="white"/>
<path opacity="0.2" d="M57 750H149" stroke="white"/>
<path opacity="0.2" d="M308 604H400" stroke="white"/>
<path opacity="0.2" d="M-20 625H72" stroke="white"/>
<path opacity="0.2" d="M247 711H339" stroke="white"/>
<path d="M231.506 365.742L208.162 339.924L180.693 364.793L111.908 378.451C107.312 379.365 104.298 383.778 105.085 388.402C106.768 398.291 112.115 415.701 128.908 434.278C145.847 453.012 163.708 461.069 173.979 464.398C178.632 465.903 183.597 463.228 184.923 458.518L204.033 390.611L231.502 365.742L231.506 365.742Z" fill="#E1580C"/>
<path d="M252.667 354.786L221.167 319.947C217.277 315.645 210.639 315.313 206.339 319.206L204.826 320.575C200.527 324.468 200.195 331.111 204.085 335.413L235.584 370.252C239.474 374.554 246.113 374.886 250.412 370.993L251.925 369.624C256.224 365.731 256.556 359.088 252.667 354.786Z" fill="#E1580C"/>
<g opacity="0.5">
<path d="M170.105 397.611L186.83 398.447L170.938 380.871L170.105 397.611Z" fill="white"/>
<path d="M186.729 400.465L170.004 399.628L169.167 416.368L186.729 400.465Z" fill="white"/>
<path d="M167.984 399.527L141.81 398.219C137.091 397.983 133.055 401.583 132.753 406.302C132.443 411.118 136.13 415.255 140.946 415.496L167.12 416.804L167.984 399.527Z" fill="white"/>
<path d="M168.084 397.51L168.942 380.364L150.951 396.653L168.084 397.51Z" fill="white"/>
<path d="M167.019 418.826L148.811 417.915L148.497 424.194C148.247 429.177 152.043 433.433 157.015 433.751C162.091 434.078 166.451 430.184 166.705 425.105L167.019 418.826Z" fill="white"/>
</g>
</g>
<defs>
<clipPath id="clip0_76_3371">
<rect width="360" height="780" fill="white"/>
</clipPath>
<clipPath id="clip1_76_3371">
<rect width="360" height="81" fill="white" transform="translate(0 497)"/>
</clipPath>
</defs>
</svg>
