<svg width="22" height="21" viewBox="0 0 22 21" fill="none" xmlns="http://www.w3.org/2000/svg">
<path fill-rule="evenodd" clip-rule="evenodd" d="M11 0.65094C5.201 0.65094 0.5 4.90394 0.5 10.1509C0.5 12.6779 1.598 14.9679 3.376 16.6709L1.39176 19.6509C1.37328 19.7418 1.38043 19.8361 1.41243 19.9231C1.44442 20.0101 1.5 20.0866 1.57294 20.1439C1.64588 20.2011 1.73332 20.237 1.82547 20.2474C1.91762 20.2579 2.01086 20.2425 2.09476 20.2029L7.942 19.2389C8.93827 19.5127 9.96681 19.6512 11 19.6509C16.799 19.6509 21.5 15.3979 21.5 10.1509C21.5 4.90394 16.799 0.65094 11 0.65094Z" fill="#0030DF"/>
</svg>
