<svg width="64" height="40" viewBox="0 0 64 40" fill="none" xmlns="http://www.w3.org/2000/svg">
<g opacity="0.3">
<path fill-rule="evenodd" clip-rule="evenodd" d="M32 1.565C26.201 1.565 21.5 5.818 21.5 11.065C21.5 13.592 22.598 15.882 24.376 17.585L22.3918 20.565C22.3733 20.6559 22.3804 20.7501 22.4124 20.8372C22.4444 20.9242 22.5 21.0006 22.5729 21.0579C22.6459 21.1152 22.7333 21.151 22.8255 21.1615C22.9176 21.1719 23.0109 21.1565 23.0948 21.117L28.942 20.153C29.9383 20.4267 30.9668 20.5653 32 20.565C37.799 20.565 42.5 16.312 42.5 11.065C42.5 5.818 37.799 1.565 32 1.565Z" fill="white"/>
<path d="M25.2148 29.6719C25.2148 30.2305 25.293 30.7715 25.4492 31.2949C25.6055 31.8184 25.8457 32.293 26.1699 32.7188C26.4941 33.1445 26.8984 33.4844 27.3828 33.7383L26.6445 34.6992C26.168 34.4492 25.7598 34.1055 25.4199 33.668C25.0801 33.2305 24.8105 32.7246 24.6113 32.1504C24.416 32.7715 24.1484 33.3223 23.8086 33.8027C23.4688 34.2832 23.0586 34.6602 22.5781 34.9336L21.8281 33.9727C22.3047 33.6953 22.7031 33.3301 23.0234 32.877C23.3477 32.4199 23.5879 31.916 23.7441 31.3652C23.9004 30.8145 23.9805 30.25 23.9844 29.6719V29.3789H22.1328V28.3125H23.9844V26.8242H25.2148V28.3125H27.043V29.3789H25.2148V29.6719ZM27.6055 26.6367H28.8359V30.5977H29.9258V26.4492H31.168V37.043H29.9258V31.6758H28.8359V36.5273H27.6055V26.6367ZM38.0586 28.2422H34.2617V29.25H37.7539V30.2695H34.2617V31.2891H34.6719C35.6094 31.2891 36.3848 31.2715 36.998 31.2363C37.6152 31.2012 38.2305 31.1328 38.8438 31.0312L38.9727 32.0625C38.293 32.1758 37.6074 32.252 36.916 32.291C36.2285 32.3262 35.3438 32.3438 34.2617 32.3438H33.8398H32.9375V27.2109H38.0586V28.2422ZM33.9805 35.0508C33.9805 34.6367 34.123 34.2812 34.4082 33.9844C34.6973 33.6836 35.1133 33.457 35.6562 33.3047C36.2031 33.1484 36.8516 33.0703 37.6016 33.0703C38.3398 33.0703 38.9805 33.1484 39.5234 33.3047C40.0703 33.4609 40.4902 33.6875 40.7832 33.9844C41.0762 34.2812 41.2227 34.6367 41.2227 35.0508C41.2227 35.4648 41.0762 35.8203 40.7832 36.1172C40.4902 36.4141 40.0703 36.6406 39.5234 36.7969C38.9805 36.9531 38.3398 37.0312 37.6016 37.0312C36.8516 37.0312 36.2031 36.9531 35.6562 36.7969C35.1133 36.6406 34.6973 36.4141 34.4082 36.1172C34.123 35.8203 33.9805 35.4648 33.9805 35.0508ZM35.2812 35.0508C35.2773 35.3672 35.4746 35.6094 35.873 35.7773C36.2715 35.9414 36.8477 36.0234 37.6016 36.0234C38.3398 36.0234 38.9102 35.9395 39.3125 35.7715C39.7188 35.6035 39.9219 35.3633 39.9219 35.0508C39.9219 34.7383 39.7188 34.498 39.3125 34.3301C38.9102 34.1621 38.3398 34.0781 37.6016 34.0781C36.8477 34.0781 36.2715 34.1621 35.873 34.3301C35.4746 34.498 35.2773 34.7383 35.2812 35.0508ZM39.8633 26.4609H41.1758V32.918H39.8633V26.4609Z" fill="white"/>
</g>
</svg>
