<svg width="168" height="168" viewBox="0 0 168 168" fill="none" xmlns="http://www.w3.org/2000/svg">
<path d="M135.506 59.7418L112.162 33.9239L84.6933 58.7929L15.9076 72.451C11.3115 73.3647 8.29813 77.7778 9.08467 82.4018C10.7681 92.2913 16.1152 109.702 32.9084 128.278C49.8466 147.012 67.7077 155.069 77.9793 158.398C82.6316 159.903 87.5971 157.228 88.9233 152.518L108.033 84.6107L135.502 59.7417L135.506 59.7418Z" fill="#E1580C"/>
<path d="M156.667 48.7862L125.167 13.9474C121.277 9.64538 114.639 9.31342 110.339 13.2059L108.826 14.5755C104.527 18.468 104.195 25.1109 108.085 29.4129L139.584 64.2517C143.474 68.5537 150.113 68.8856 154.412 64.9931L155.925 63.6236C160.224 59.7311 160.556 53.0882 156.667 48.7862Z" fill="#E1580C"/>
<g opacity="0.5">
<path d="M74.1047 91.6106L90.8297 92.4469L74.9382 74.871L74.1047 91.6106Z" fill="white"/>
<path d="M90.7287 94.4648L74.0037 93.6285L73.1666 110.368L90.7287 94.4648Z" fill="white"/>
<path d="M71.9836 93.5275L45.8097 92.2187C41.0905 91.9827 37.0548 95.5835 36.7528 100.302C36.4426 105.118 40.1296 109.255 44.9458 109.496L71.1197 110.804L71.9836 93.5275Z" fill="white"/>
<path d="M72.0845 91.5096L72.9418 74.3645L54.9505 90.6528L72.0845 91.5096Z" fill="white"/>
<path d="M71.0186 112.826L52.8105 111.915L52.4966 118.194C52.2474 123.177 56.0431 127.433 61.0152 127.751C66.0911 128.078 70.4506 124.184 70.7046 119.105L71.0186 112.826Z" fill="white"/>
</g>
</svg>
