<svg width="93" height="36" viewBox="0 0 93 36" fill="none" xmlns="http://www.w3.org/2000/svg">
<g clip-path="url(#clip0_107_1397)">
<path d="M36.5469 33.1652C36.5469 32.7364 36.7757 32.4048 36.9895 32.1181C37.8897 30.9288 38.7476 28.9516 38.7476 25.1245V24.5511H37.8623C37.176 24.5511 36.7483 23.9627 36.7483 23.262C36.7483 22.5614 37.176 22.0154 37.8623 22.0154H42.3508C43.0372 22.0154 43.4798 22.5739 43.4798 23.262C43.4798 23.9502 43.0372 24.5511 42.3508 24.5511H41.478V25.1245C41.478 28.9516 42.3508 30.9138 43.251 32.1181C43.4947 32.4048 43.6936 32.7339 43.6936 33.1652C43.6936 33.9107 43.0943 34.4542 42.321 34.4542C41.9505 34.4542 41.6073 34.3121 41.3213 33.9955C40.9061 33.4794 40.4361 32.5768 40.1053 31.4449C39.792 32.5768 39.3046 33.4644 38.9192 33.9955C38.6183 34.3395 38.2751 34.4542 37.9195 34.4542C37.176 34.4542 36.5469 33.9107 36.5469 33.1652ZM44.0642 33.9381V29.0663H43.3928C42.6915 29.0663 42.1071 28.4929 42.1071 27.7773C42.1071 27.0618 42.694 26.4883 43.3928 26.4883H44.0642V22.6038C44.0642 21.8733 44.6635 21.4146 45.407 21.4146C46.1505 21.4146 46.7075 21.8733 46.7075 22.6038V33.9381C46.7075 34.6687 46.1207 35.1274 45.407 35.1274C44.6933 35.1274 44.0642 34.6687 44.0642 33.9381ZM47.1079 33.9107V22.6188C47.1079 21.8883 47.7221 21.4146 48.4656 21.4146C49.2091 21.4146 49.8234 21.8883 49.8234 22.6188V33.9107C49.8234 34.6562 49.2091 35.1299 48.4656 35.1299C47.7221 35.1299 47.1079 34.6562 47.1079 33.9107Z" fill="#D1D1D2"/>
<path d="M63.361 29.0737C64.0623 29.0737 64.6193 29.6322 64.6193 30.3203C64.6193 31.0085 64.0623 31.5819 63.361 31.5819H59.544V33.6588C59.544 34.5763 58.7855 35.2071 57.858 35.2071C56.9304 35.2071 56.172 34.5763 56.172 33.6588V31.5819H52.3848C51.6711 31.5819 51.1116 31.0234 51.1116 30.3203C51.1116 29.6172 51.6686 29.0737 52.3848 29.0737H63.361ZM56.1422 24.2867H52.8547C52.1411 24.2867 51.5816 23.6983 51.5816 22.9977C51.5816 22.2971 52.1386 21.7361 52.8547 21.7361H62.8612C63.5749 21.7361 64.1344 22.2946 64.1344 22.9977C64.1344 23.7008 63.5774 24.2867 62.8612 24.2867H59.5589C59.7877 24.9025 60.6157 25.8624 63.1174 26.0768C63.7614 26.1192 64.2762 26.6652 64.2762 27.3085C64.2762 28.0241 63.6619 28.6125 62.9333 28.5402C60.3596 28.3257 58.7731 27.5653 57.8605 26.4483C56.9454 27.5653 55.3589 28.3257 52.7876 28.5402C52.0739 28.6125 51.4448 28.0241 51.4448 27.3085C51.4448 26.6627 51.9595 26.1192 52.6036 26.0768C55.0754 25.8624 55.9756 24.9025 56.1471 24.2867H56.1422Z" fill="#D1D1D2"/>
<path d="M65.2583 28.2859C65.2583 27.7423 65.6015 27.2537 66.059 27.0542C67.6182 26.3661 68.1031 25.3787 68.1031 24.1172V22.7708C68.1031 21.8683 68.8168 21.4245 69.7045 21.4245C70.5923 21.4245 71.306 21.8683 71.306 22.7708V24.1172C71.306 25.3787 71.7909 26.3661 73.3351 27.0542C73.82 27.2836 74.1507 27.7423 74.1507 28.2859C74.1507 29.0588 73.5216 29.6621 72.7632 29.6621C72.5916 29.6621 72.4051 29.6472 72.2633 29.5624C71.1045 29.1037 70.3486 28.4579 69.7045 27.7C69.048 28.4729 68.2896 29.0912 67.1457 29.5624C67.0015 29.6347 66.8025 29.6621 66.616 29.6621C65.8576 29.6621 65.2583 29.0737 65.2583 28.2859ZM67.4889 34.8631C66.616 34.8631 66.1311 34.4043 66.1311 33.5167V31.4972C66.1311 30.5797 66.8747 30.1209 67.8171 30.1209C68.7024 30.1209 69.4608 30.5797 69.4608 31.4972V32.3997H77.4929C78.1792 32.3997 78.7213 32.9732 78.7213 33.6314C78.7213 34.2896 78.1792 34.8631 77.4929 34.8631H67.4864H67.4889ZM75.036 30.1758V26.1492H73.7504C73.0367 26.1492 72.4772 25.5757 72.4772 24.8726C72.4772 24.1695 73.0342 23.5836 73.7504 23.5836H75.036V22.7234C75.036 21.8059 75.7795 21.3472 76.6946 21.3472C77.6097 21.3472 78.3383 21.8059 78.3383 22.7234V30.1758C78.3383 31.1082 77.6097 31.5371 76.6946 31.5371C75.7795 31.5371 75.036 31.1082 75.036 30.1758Z" fill="#D1D1D2"/>
<path d="M86.4102 22.3844V33.0181C86.4102 33.7486 85.8109 34.0652 85.0674 34.0652C84.4681 34.0652 83.9658 33.8508 83.7942 33.392L81.3647 33.7062C80.5491 33.8209 80.0791 33.392 80.0791 32.5743V22.4292C80.0791 21.6837 80.6933 21.1826 81.4518 21.1826C82.2102 21.1826 82.8518 21.6837 82.8518 22.4292V24.5784H83.737V22.3868C83.737 21.6414 84.3239 21.1826 85.0674 21.1826C85.8109 21.1826 86.4102 21.6414 86.4102 22.3868V22.3844ZM82.8518 26.9844V31.0983L83.737 30.9686V26.9844H82.8518ZM93 21.968V33.2599C93 34.0054 92.3858 34.4791 91.6422 34.4791C90.8987 34.4791 90.2845 34.0054 90.2845 33.2599V28.5028H89.7548V33.2898C89.7548 34.0203 89.168 34.4791 88.4394 34.4791C87.7108 34.4791 87.1239 34.0203 87.1239 33.2898V21.9555C87.1239 21.225 87.6959 20.7662 88.4394 20.7662C89.1829 20.7662 89.7548 21.225 89.7548 21.9555V25.7827H90.2845V21.9705C90.2845 21.24 90.8987 20.7662 91.6422 20.7662C92.3858 20.7662 93 21.24 93 21.9705V21.968Z" fill="#D1D1D2"/>
<path d="M5.77679 36.0001H23.9048C26.767 36.0001 29.2462 34.0155 29.8853 31.2206C29.7436 31.2929 29.5919 31.3552 29.4352 31.4051C28.0452 31.8389 26.5755 31.1408 26.0061 29.8318C26.7397 29.5925 27.15 28.8071 26.9212 28.0641L26.3841 26.3288C26.1528 25.5808 25.3595 25.162 24.616 25.3963L24.5489 25.1819C24.0863 23.6909 24.8547 22.0504 26.3343 21.5592C27.8139 21.068 29.4551 21.8983 29.9226 23.4092L30.9248 26.6504L31.5788 23.7757L39.9216 15.4109L41.2918 16.7846C42.5973 18.0936 44.7135 18.0936 46.0215 16.7846L46.4815 16.3234C47.7871 15.0144 47.7871 12.8927 46.4815 11.5812L35.9056 0.982449C34.6001 -0.326506 32.4839 -0.326506 31.1784 0.982449L30.7184 1.4437C29.4129 2.75265 29.4129 4.87441 30.7184 6.18336L32.0885 7.55714L23.7457 15.922L2.07907 21.3722C0.631816 21.7362 -0.255935 23.1923 0.0673361 24.6533C0.641763 27.2413 2.09648 31.43 5.77679 36.0026V36.0001ZM20.1151 26.0171L21.4902 30.4601C21.9528 31.9561 21.1197 33.5443 19.6277 34.008C18.2376 34.4418 16.768 33.7437 16.1985 32.4348C16.9321 32.1954 17.3424 31.41 17.1136 30.667L16.5765 28.9317C16.3453 28.1838 15.552 27.7649 14.8085 27.9993L14.714 27.6951C14.2515 26.1992 15.0845 24.611 16.5765 24.1472C18.0685 23.6835 19.6526 24.5187 20.1151 26.0146V26.0171Z" fill="#D1D1D2"/>
<path d="M15.6016 16.4829C16.2357 16.3034 11.3418 8.58926 5.26685 10.6387C5.26685 10.6387 7.39297 18.8265 15.6016 16.4829Z" fill="#D1D1D2"/>
</g>
<defs>
<clipPath id="clip0_107_1397">
<rect width="93" height="36" fill="white"/>
</clipPath>
</defs>
</svg>
