<svg width="64" height="40" viewBox="0 0 64 40" fill="none" xmlns="http://www.w3.org/2000/svg">
<g opacity="0.3">
<path fill-rule="evenodd" clip-rule="evenodd" d="M22.9432 8.63008C22.4584 9.00913 22.175 9.59027 22.175 10.2057V19.9806C22.175 21.0852 23.0705 21.9806 24.175 21.9806H30V17.0186C30 16.4663 30.4478 16.0186 31 16.0186H33C33.5523 16.0186 34 16.4663 34 17.0186V21.9806H40C41.1046 21.9806 42 21.0852 42 19.9806V10.2057C42 9.59027 41.7167 9.00913 41.2319 8.63008L33.3194 2.44376C32.5956 1.87789 31.5794 1.87789 30.8557 2.44376L22.9432 8.63008Z" fill="white"/>
<path d="M35.6504 36.9141H28.3027V33.832H35.6504V36.9141ZM27.166 32.1797H31.3379V31.5645C30.4082 31.5215 29.6973 31.373 29.2051 31.1191C28.7129 30.8652 28.4668 30.5156 28.4668 30.0703C28.4668 29.5781 28.7695 29.2051 29.375 28.9512C29.9805 28.6973 30.8496 28.5703 31.9824 28.5703C33.123 28.5703 33.9941 28.6973 34.5957 28.9512C35.2012 29.2012 35.5059 29.5742 35.5098 30.0703C35.5059 30.5195 35.2598 30.8711 34.7715 31.125C34.2832 31.375 33.5723 31.5215 32.6387 31.5645V32.1797H36.8223V33.2109H27.166V32.1797ZM27.6465 27.2578H31.3379V26.332H32.6387V27.2578H36.2949V28.2422H27.6465V27.2578ZM34.3848 35.9297V34.8164H29.5918V35.9297H34.3848ZM29.8613 30.0703C29.8613 30.4844 30.5684 30.6914 31.9824 30.6914C33.4004 30.6914 34.1113 30.4844 34.1152 30.0703C34.1113 29.8594 33.9336 29.7051 33.582 29.6074C33.2344 29.5059 32.7012 29.4531 31.9824 29.4492C31.2715 29.4531 30.7402 29.5059 30.3887 29.6074C30.0371 29.7051 29.8613 29.8594 29.8613 30.0703Z" fill="white"/>
</g>
</svg>
