<svg width="24" height="25" viewBox="0 0 24 25" fill="none" xmlns="http://www.w3.org/2000/svg">
<path d="M6.97849 3.56311C6.97849 2.45854 7.87392 1.56311 8.97849 1.56311H10.6963V5.87433C10.6963 6.42661 11.1441 6.87433 11.6963 6.87433H12.3037C12.8559 6.87433 13.3037 6.42661 13.3037 5.87433V1.56311H15.0215C16.1261 1.56311 17.0215 2.45854 17.0215 3.56311V9.60614C17.0215 10.7107 16.1261 11.6061 15.0215 11.6061H8.97849C7.87392 11.6061 6.97849 10.7107 6.97849 9.60614V3.56311Z" fill="#5F5F60"/>
<path d="M3.4375 12.5657C2.33293 12.5657 1.4375 13.4612 1.4375 14.5657V20.6088C1.4375 21.7133 2.33293 22.6088 3.4375 22.6088H9.48053C10.5851 22.6088 11.4805 21.7133 11.4805 20.6088V14.5657C11.4805 13.4612 10.5851 12.5657 9.48053 12.5657H7.76268V16.877C7.76268 17.4292 7.31496 17.877 6.76268 17.877H6.15535C5.60307 17.877 5.15535 17.4292 5.15535 16.877V12.5657H3.4375Z" fill="#5F5F60"/>
<path d="M14.5195 12.5657C13.4149 12.5657 12.5195 13.4612 12.5195 14.5657V20.6088C12.5195 21.7133 13.4149 22.6088 14.5195 22.6088H20.5625C21.6671 22.6088 22.5625 21.7133 22.5625 20.6088V14.5657C22.5625 13.4612 21.6671 12.5657 20.5625 12.5657H18.8447V16.877C18.8447 17.4292 18.3969 17.877 17.8447 17.877H17.2373C16.685 17.877 16.2373 17.4292 16.2373 16.877V12.5657H14.5195Z" fill="#5F5F60"/>
</svg>
