<svg width="24" height="24" viewBox="0 0 24 24" fill="none" xmlns="http://www.w3.org/2000/svg">
<path fill-rule="evenodd" clip-rule="evenodd" d="M12 1.565C6.201 1.565 1.5 5.818 1.5 11.065C1.5 13.592 2.598 15.882 4.376 17.585L2.39176 20.565C2.37328 20.6559 2.38043 20.7501 2.41243 20.8372C2.44442 20.9242 2.5 21.0006 2.57294 21.0579C2.64588 21.1152 2.73332 21.151 2.82547 21.1615C2.91762 21.1719 3.01086 21.1565 3.09476 21.117L8.942 20.153C9.93827 20.4267 10.9668 20.5653 12 20.565C17.799 20.565 22.5 16.312 22.5 11.065C22.5 5.818 17.799 1.565 12 1.565Z" fill="white"/>
</svg>
