<svg width="24" height="25" viewBox="0 0 24 25" fill="none" xmlns="http://www.w3.org/2000/svg">
<path fill-rule="evenodd" clip-rule="evenodd" d="M17.0165 9.55423C16.7507 10.1516 16.1146 10.4615 15.4608 10.4615H8.53914C7.88533 10.4615 7.24926 10.1516 6.98348 9.55423C6.68046 8.87319 6.51205 8.11902 6.51205 7.32552C6.51205 4.29462 8.96908 1.83759 12 1.83759C15.0309 1.83759 17.4879 4.29462 17.4879 7.32552C17.4879 8.11902 17.3195 8.87319 17.0165 9.55423ZM12.813 6.63954C12.813 6.19052 13.177 5.82651 13.626 5.82651C14.0751 5.82651 14.4391 6.19052 14.4391 6.63954V7.02065C14.4391 7.46967 14.0751 7.83367 13.626 7.83367C13.177 7.83367 12.813 7.46967 12.813 7.02064V6.63954ZM10.3739 5.82651C9.92491 5.82651 9.56091 6.19052 9.56091 6.63954V7.02064C9.56091 7.46967 9.92491 7.83367 10.3739 7.83367C10.823 7.83367 11.187 7.46967 11.187 7.02065V6.63954C11.187 6.19052 10.823 5.82651 10.3739 5.82651Z" fill="#0030DF"/>
<path d="M5.25126 11.3384C4.07567 11.3384 3.15363 12.3474 3.25937 13.5183L3.89118 20.5142C3.98426 21.5448 4.84821 22.3343 5.88307 22.3343H18.1169C19.1518 22.3343 20.0157 21.5448 20.1088 20.5142L20.7406 13.5183C20.8464 12.3474 19.9243 11.3384 18.7487 11.3384H5.25126Z" fill="#0030DF"/>
</svg>
