<svg width="24" height="25" viewBox="0 0 24 25" fill="none" xmlns="http://www.w3.org/2000/svg">
<path fill-rule="evenodd" clip-rule="evenodd" d="M3.56809 3.58594C2.34677 3.58594 1.3567 4.57601 1.3567 5.79732V13.9518C1.3567 17.6157 4.32691 20.5859 7.99085 20.5859H12.4136C15.6476 20.5859 18.3412 18.2719 18.9288 15.2092C19.1473 15.2458 19.3717 15.2648 19.6006 15.2648C21.8333 15.2648 23.6433 13.4548 23.6433 11.2221C23.6433 8.9894 21.8333 7.17943 19.6006 7.17943C19.4131 7.17943 19.2285 7.1922 19.0478 7.21692V5.79732C19.0478 4.57601 18.0577 3.58594 16.8364 3.58594H3.56809ZM19.0478 12.9685V9.47574C19.2222 9.42057 19.4079 9.39082 19.6006 9.39082C20.612 9.39082 21.4319 10.2107 21.4319 11.2221C21.4319 12.2335 20.612 13.0534 19.6006 13.0534C19.4079 13.0534 19.2222 13.0237 19.0478 12.9685Z" fill="#5F5F60"/>
</svg>
