<svg width="24" height="25" viewBox="0 0 24 25" fill="none" xmlns="http://www.w3.org/2000/svg">
<path fill-rule="evenodd" clip-rule="evenodd" d="M12 12.1405C14.9806 12.1405 17.3969 9.72426 17.3969 6.74365C17.3969 3.76304 14.9806 1.34677 12 1.34677C9.01938 1.34677 6.60312 3.76304 6.60312 6.74365C6.60312 9.72426 9.01938 12.1405 12 12.1405ZM3.00627 16.9243C2.26583 17.5869 2.26583 18.728 3.00627 19.3906C5.39317 21.5264 8.54492 22.8251 12 22.8251C15.4551 22.8251 18.6068 21.5264 20.9937 19.3906C21.7342 18.728 21.7342 17.5869 20.9937 16.9243C18.6068 14.7885 15.4551 13.4897 12 13.4897C8.54492 13.4897 5.39317 14.7885 3.00627 16.9243Z" fill="#1A1A1B"/>
</svg>
