<svg width="24" height="25" viewBox="0 0 24 25" fill="none" xmlns="http://www.w3.org/2000/svg">
<path fill-rule="evenodd" clip-rule="evenodd" d="M22.8515 9.17828C23.5938 11.9485 20.8252 18.1217 15.735 19.4856C11.8148 20.536 7.90844 19.3518 5.79006 16.7746L3.73047 18.8342C3.18614 19.3785 2.25668 19.1295 2.05744 18.3859L0.391719 12.1693C0.19248 11.4258 0.872894 10.7453 1.61646 10.9446L4.21148 11.6399C4.53986 8.15039 7.41314 4.91454 11.5348 3.81014C16.625 2.44623 22.1092 6.40802 22.8515 9.17828ZM20.1152 8.83596C20.287 9.47724 19.9065 10.1364 19.2652 10.3082C18.6239 10.4801 17.9647 10.0995 17.7929 9.45822C17.6211 8.81694 18.0016 8.15778 18.6429 7.98595C19.2842 7.81412 19.9434 8.19468 20.1152 8.83596Z" fill="#0030DF"/>
</svg>
