<svg width="24" height="25" viewBox="0 0 24 25" fill="none" xmlns="http://www.w3.org/2000/svg">
<path fill-rule="evenodd" clip-rule="evenodd" d="M13.318 1.78572C12.5417 1.18599 11.4583 1.18599 10.682 1.78572L8.9114 3.15356C8.60815 3.38783 8.24792 3.53704 7.86783 3.58582L5.64862 3.87062C4.6756 3.99549 3.90957 4.76152 3.7847 5.73454L3.4999 7.95375C3.45112 8.33385 3.30191 8.69407 3.06763 8.99733L1.6998 10.7679C1.10007 11.5443 1.10007 12.6276 1.6998 13.4039L3.06763 15.1745C3.30191 15.4778 3.45112 15.838 3.4999 16.2181L3.7847 18.4373C3.90957 19.4103 4.6756 20.1764 5.64862 20.3012L7.86783 20.586C8.24793 20.6348 8.60815 20.784 8.9114 21.0183L10.682 22.3861C11.4583 22.9859 12.5417 22.9859 13.318 22.3861L15.0886 21.0183C15.3919 20.784 15.7521 20.6348 16.1322 20.586L18.3514 20.3012C19.3244 20.1764 20.0904 19.4103 20.2153 18.4373L20.5001 16.2181C20.5489 15.838 20.6981 15.4778 20.9324 15.1745L22.3002 13.4039C22.8999 12.6276 22.8999 11.5443 22.3002 10.7679L20.9324 8.99733C20.6981 8.69407 20.5489 8.33385 20.5001 7.95375L20.2153 5.73454C20.0904 4.76152 19.3244 3.99549 18.3514 3.87062L16.1322 3.58582C15.7521 3.53704 15.3919 3.38783 15.0886 3.15356L13.318 1.78572ZM12 5.61827C11.5687 5.61827 11.1468 5.66056 10.7384 5.74137C10.4463 5.79914 10.2565 6.08268 10.3142 6.37469C10.372 6.6667 10.6555 6.85658 10.9475 6.79882C11.2875 6.73156 11.6394 6.69622 12 6.69622C12.3606 6.69622 12.7125 6.73156 13.0525 6.79882C13.3445 6.85658 13.628 6.6667 13.6858 6.37469C13.7435 6.08268 13.5537 5.79914 13.2617 5.74137C12.8532 5.66056 12.4313 5.61827 12 5.61827ZM15.5939 6.70797C15.3466 6.54238 15.0118 6.60865 14.8462 6.856C14.6806 7.10335 14.7469 7.43811 14.9942 7.60371C15.5822 7.99736 16.0886 8.50371 16.4822 9.0917C16.6478 9.33905 16.9826 9.40532 17.2299 9.23972C17.4773 9.07413 17.5436 8.73937 17.378 8.49202C16.9059 7.78694 16.299 7.18001 15.5939 6.70797ZM9.00577 7.60371C9.25312 7.43811 9.3194 7.10335 9.1538 6.856C8.9882 6.60865 8.65344 6.54238 8.40609 6.70797C7.70102 7.18001 7.09409 7.78694 6.62205 8.49202C6.45645 8.73937 6.52273 9.07413 6.77008 9.23973C7.01743 9.40532 7.35219 9.33905 7.51779 9.0917C7.91143 8.50371 8.41779 7.99736 9.00577 7.60371ZM18.3446 10.8243C18.2868 10.5323 18.0032 10.3424 17.7112 10.4001C17.4192 10.4579 17.2293 10.7415 17.2871 11.0335C17.3544 11.3734 17.3897 11.7253 17.3897 12.0859C17.3897 12.4466 17.3544 12.7984 17.2871 13.1384C17.2293 13.4304 17.4192 13.7139 17.7112 13.7717C18.0032 13.8295 18.2868 13.6396 18.3446 13.3476C18.4254 12.9391 18.4677 12.5172 18.4677 12.0859C18.4677 11.6547 18.4254 11.2328 18.3446 10.8243ZM6.71289 11.0335C6.77066 10.7415 6.58077 10.4579 6.28877 10.4001C5.99676 10.3424 5.71321 10.5323 5.65545 10.8243C5.57464 11.2328 5.53235 11.6547 5.53235 12.0859C5.53235 12.5172 5.57464 12.9391 5.65545 13.3476C5.71321 13.6396 5.99676 13.8295 6.28877 13.7717C6.58077 13.7139 6.77066 13.4304 6.71289 13.1384C6.64564 12.7984 6.61029 12.4466 6.61029 12.0859C6.61029 11.7253 6.64564 11.3734 6.71289 11.0335ZM17.378 15.6798C17.5436 15.4325 17.4773 15.0977 17.2299 14.9321C16.9826 14.7665 16.6478 14.8328 16.4822 15.0802C16.0886 15.6681 15.5822 16.1745 14.9942 16.5681C14.7469 16.7337 14.6806 17.0685 14.8462 17.3158C15.0118 17.5632 15.3466 17.6295 15.5939 17.4639C16.299 16.9918 16.9059 16.3849 17.378 15.6798ZM7.51779 15.0802C7.35219 14.8328 7.01743 14.7665 6.77008 14.9321C6.52273 15.0977 6.45645 15.4325 6.62205 15.6798C7.09409 16.3849 7.70102 16.9918 8.40609 17.4639C8.65344 17.6295 8.98821 17.5632 9.1538 17.3158C9.3194 17.0685 9.25313 16.7337 9.00577 16.5681C8.41779 16.1745 7.91143 15.6681 7.51779 15.0802ZM10.9475 17.373C10.6555 17.3153 10.372 17.5052 10.3142 17.7972C10.2565 18.0892 10.4463 18.3727 10.7384 18.4305C11.1468 18.5113 11.5687 18.5536 12 18.5536C12.4313 18.5536 12.8532 18.5113 13.2617 18.4305C13.5537 18.3727 13.7435 18.0892 13.6858 17.7972C13.628 17.5052 13.3445 17.3153 13.0525 17.373C12.7125 17.4403 12.3606 17.4756 12 17.4756C11.6394 17.4756 11.2875 17.4403 10.9475 17.373Z" fill="#0030DF"/>
</svg>
