<svg width="24" height="25" viewBox="0 0 24 25" fill="none" xmlns="http://www.w3.org/2000/svg">
<path fill-rule="evenodd" clip-rule="evenodd" d="M10.4421 6.63027C10.9171 6.56283 11.4025 6.52794 11.8961 6.52794C12.4621 6.52794 13.0173 6.5738 13.5583 6.66202C13.5559 5.80343 12.8592 5.10814 12 5.10814C11.1515 5.10814 10.4613 5.78635 10.4421 6.63027ZM9.33971 6.84928C9.33562 6.78887 9.33354 6.7279 9.33354 6.66645C9.33354 5.19381 10.5274 4 12 4C13.4726 4 14.6665 5.19381 14.6665 6.66645C14.6665 6.74643 14.6629 6.82559 14.656 6.90378C18.2831 7.91542 21.0992 10.8718 21.9097 14.5783C22.1712 15.7741 21.1541 16.7782 19.9301 16.7782H3.86212C2.6381 16.7782 1.62098 15.7741 1.88248 14.5783C2.70813 10.8027 5.61473 7.80554 9.33971 6.84928ZM0.745483 19.0637C0.745483 18.4517 1.24161 17.9556 1.85362 17.9556H22.1464C22.7584 17.9556 23.2545 18.4517 23.2545 19.0637C23.2545 19.6757 22.7584 20.1719 22.1464 20.1719H1.85362C1.24161 20.1719 0.745483 19.6757 0.745483 19.0637Z" fill="#5F5F60"/>
</svg>
