<svg width="24" height="25" viewBox="0 0 24 25" fill="none" xmlns="http://www.w3.org/2000/svg">
<path d="M2.54158 10.2563C2.54158 9.64297 2.79653 9.05726 3.24541 8.63933L9.25685 3.04247C10.013 2.33848 11.1561 2.25252 12.009 2.83553L15.6591 5.33053V4.31578C15.6591 3.28629 16.4937 2.45172 17.5232 2.45172C18.5527 2.45172 19.3872 3.28629 19.3872 4.31578V7.87888L20.4959 8.63668C21.0982 9.0484 21.4584 9.73096 21.4584 10.4606V19.5125C21.4584 20.7326 20.4693 21.7217 19.2491 21.7217H13.89C13.8957 21.6765 13.8986 21.6304 13.8986 21.5837V14.5536C13.8986 13.9435 13.404 13.4489 12.7939 13.4489H11.206C10.596 13.4489 10.1014 13.9435 10.1014 14.5536V21.5837C10.1014 21.6304 10.1043 21.6765 10.11 21.7217H4.75084C3.5307 21.7217 2.54158 20.7326 2.54158 19.5125V10.2563Z" fill="#1A1A1B"/>
</svg>
