<svg width="24" height="25" viewBox="0 0 24 25" fill="none" xmlns="http://www.w3.org/2000/svg">
<g clip-path="url(#clip0_128_2234)">
<path d="M16.979 1.04047C16.0225 0.488181 14.7993 0.815931 14.247 1.77252L14.0565 2.10244C13.5042 3.05902 13.832 4.2822 14.7886 4.83449L18.9125 7.21545C19.8691 7.76773 21.0923 7.43998 21.6446 6.4834L21.835 6.15348C22.3873 5.19689 22.0596 3.97371 21.103 3.42143L16.979 1.04047Z" fill="#1A1A1B"/>
<path d="M15.4682 6.49172C14.5117 5.93944 13.2885 6.26719 12.7362 7.22377L12.2884 7.99937C12.1375 8.26075 11.9294 8.48458 11.6797 8.6541L3.68733 14.0799C2.46651 14.9087 2.53281 16.7289 3.81067 17.4667L12.7093 22.6043C13.9368 23.313 15.4916 22.5552 15.6897 21.1517L17.0264 11.68C17.0622 11.4262 17.1465 11.1816 17.2747 10.9595L17.7577 10.1229C18.31 9.16635 17.9822 7.94317 17.0256 7.39089L15.4682 6.49172Z" fill="#1A1A1B"/>
</g>
<defs>
<clipPath id="clip0_128_2234">
<rect width="24" height="24" fill="white" transform="translate(0 0.0859375)"/>
</clipPath>
</defs>
</svg>
