<svg width="24" height="21" viewBox="0 0 24 21" fill="none" xmlns="http://www.w3.org/2000/svg">
<path d="M8.3215 17.6682C9.64039 17.9677 14.4291 18.8285 18.0478 16.5417C21.2843 14.4965 22.6485 10.5253 23.1122 8.76506C23.2427 8.26939 22.9368 7.78792 22.4331 7.69312C21.5858 7.53367 20.205 7.34405 18.6426 7.40542C18.6395 7.40539 18.6364 7.40537 18.6334 7.40537C15.5837 7.40537 12.8011 8.54918 10.6913 10.4312C10.7551 9.49315 10.6919 8.52656 10.4356 7.57382C9.42086 3.80201 5.67918 1.36077 4.07826 0.467489C3.65859 0.233322 3.14537 0.37139 2.89984 0.784514C1.96321 2.36046 -0.0485472 6.34953 0.966172 10.1213C1.90448 13.6091 5.17453 15.9592 6.9275 16.9996C6.77694 17.7567 6.69798 18.5395 6.69798 19.3408C6.69798 19.7523 7.0316 20.0859 7.44315 20.0859C7.85469 20.0859 8.18831 19.7523 8.18831 19.3408C8.18831 18.7715 8.23386 18.2128 8.3215 17.6682Z" fill="#5F5F60"/>
</svg>
