<svg width="24" height="25" viewBox="0 0 24 25" fill="none" xmlns="http://www.w3.org/2000/svg">
<path fill-rule="evenodd" clip-rule="evenodd" d="M12 1.65094C6.201 1.65094 1.5 5.90394 1.5 11.1509C1.5 13.6779 2.598 15.9679 4.376 17.6709L2.39176 20.6509C2.37328 20.7418 2.38043 20.8361 2.41243 20.9231C2.44442 21.0101 2.5 21.0866 2.57294 21.1439C2.64588 21.2011 2.73332 21.237 2.82547 21.2474C2.91762 21.2579 3.01086 21.2425 3.09476 21.2029L8.942 20.2389C9.93827 20.5127 10.9668 20.6512 12 20.6509C17.799 20.6509 22.5 16.3979 22.5 11.1509C22.5 5.90394 17.799 1.65094 12 1.65094Z" fill="white"/>
</svg>
