<svg width="21" height="23" viewBox="0 0 21 23" fill="none" xmlns="http://www.w3.org/2000/svg">
<path d="M14.979 1.04047C14.0225 0.488185 12.7993 0.815935 12.247 1.77252L12.0565 2.10244C11.5042 3.05903 11.832 4.28221 12.7886 4.83449L16.9125 7.21545C17.8691 7.76774 19.0923 7.43999 19.6446 6.4834L19.835 6.15348C20.3873 5.19689 20.0596 3.97371 19.103 3.42143L14.979 1.04047Z" fill="#0030DF"/>
<path d="M13.4682 6.49173C12.5117 5.93944 11.2885 6.26719 10.7362 7.22378L10.2884 7.99938C10.1375 8.26075 9.92939 8.48458 9.67969 8.6541L1.68733 14.0799C0.466514 14.9087 0.532806 16.7289 1.81067 17.4667L10.7093 22.6043C11.9368 23.313 13.4916 22.5552 13.6897 21.1517L15.0264 11.68C15.0622 11.4262 15.1465 11.1816 15.2747 10.9595L15.7577 10.1229C16.31 9.16636 15.9822 7.94317 15.0256 7.39089L13.4682 6.49173Z" fill="#0030DF"/>
</svg>
