<svg width="328" height="64" viewBox="0 0 328 64" fill="none" xmlns="http://www.w3.org/2000/svg">
<g filter="url(#filter0_d_90_1219)">
<rect x="4" width="320" height="56" rx="16" fill="white" shape-rendering="crispEdges"/>
<g opacity="0.3">
<path d="M72.9791 8.95456C72.0225 8.40228 70.7993 8.73003 70.247 9.68661L70.0565 10.0165C69.5043 10.9731 69.832 12.1963 70.7886 12.7486L74.9125 15.1295C75.8691 15.6818 77.0923 15.3541 77.6446 14.3975L77.8351 14.0676C78.3873 13.111 78.0596 11.8878 77.103 11.3355L72.9791 8.95456Z" fill="#1A1A1B"/>
<path d="M71.4683 14.4058C70.5117 13.8535 69.2885 14.1813 68.7362 15.1379L68.2884 15.9135C68.1375 16.1748 67.9294 16.3987 67.6797 16.5682L59.6873 21.994C58.4665 22.8228 58.5328 24.643 59.8107 25.3808L68.7093 30.5184C69.9368 31.2271 71.4916 30.4693 71.6897 29.0658L73.0264 19.5941C73.0622 19.3403 73.1465 19.0957 73.2747 18.8736L73.7577 18.037C74.31 17.0804 73.9822 15.8573 73.0257 15.305L71.4683 14.4058Z" fill="#1A1A1B"/>
<path d="M57.4766 39.6055H55.9062V45.0195H54.6055V34.4492H55.9062V38.5391H57.4766V39.6055ZM47.9844 35.4805H49.2734V41.3281C50.875 41.3008 52.3789 41.1406 53.7852 40.8477L53.9258 41.9492C53.0938 42.1172 52.2637 42.2344 51.4355 42.3008C50.6074 42.3672 49.7539 42.4023 48.875 42.4062H47.9844V35.4805ZM61.4141 35.1875C61.9688 35.1875 62.4668 35.2969 62.9082 35.5156C63.3496 35.7305 63.6953 36.0332 63.9453 36.4238C64.1992 36.8105 64.3281 37.25 64.332 37.7422C64.3281 38.2383 64.1992 38.6816 63.9453 39.0723C63.6953 39.459 63.3496 39.7617 62.9082 39.9805C62.4668 40.1992 61.9688 40.3086 61.4141 40.3086C60.8633 40.3086 60.3652 40.1992 59.9199 39.9805C59.4785 39.7617 59.1328 39.457 58.8828 39.0664C58.6328 38.6758 58.5078 38.2344 58.5078 37.7422C58.5078 37.25 58.6328 36.8105 58.8828 36.4238C59.1367 36.0332 59.4844 35.7305 59.9258 35.5156C60.3672 35.2969 60.8633 35.1875 61.4141 35.1875ZM58.0273 41.7734C59.3242 41.7734 60.5352 41.752 61.6602 41.709C62.7852 41.6621 63.8555 41.5664 64.8711 41.4219L64.9766 42.3711C63.9297 42.5703 62.8613 42.6992 61.7715 42.7578C60.6855 42.8125 59.4922 42.8398 58.1914 42.8398L58.0273 41.7734ZM59.7969 37.7422C59.7969 38.0312 59.8652 38.2852 60.002 38.5039C60.1426 38.7188 60.3359 38.8848 60.582 39.002C60.8281 39.1152 61.1055 39.1719 61.4141 39.1719C61.7266 39.1719 62.0059 39.1152 62.252 39.002C62.502 38.8848 62.6973 38.7188 62.8379 38.5039C62.9824 38.2852 63.0547 38.0312 63.0547 37.7422C63.0547 37.4531 62.9824 37.2012 62.8379 36.9863C62.6973 36.7715 62.502 36.6055 62.252 36.4883C62.0059 36.3711 61.7266 36.3125 61.4141 36.3125C61.1055 36.3125 60.8281 36.3711 60.582 36.4883C60.3359 36.6055 60.1426 36.7734 60.002 36.9922C59.8652 37.207 59.7969 37.457 59.7969 37.7422ZM65.5039 34.4492H66.8047V45.0547H65.5039V34.4492ZM76.6484 38.4805H78.2773V39.582H76.6484V45.043H75.3477V34.4492H76.6484V38.4805ZM68.7266 35.3164H70.0156V37.9648H72.5117V35.3164H73.8125V42.5586H68.7266V35.3164ZM72.5117 41.4922V38.9844H70.0156V41.4922H72.5117ZM87.0195 38.4688H88.6484V39.5352H87.0195V45.0547H85.7188V34.4492H87.0195V38.4688ZM79.1562 35.457H84.1133V36.5117H80.457V41.375C81.3164 41.3711 82.0898 41.3438 82.7773 41.293C83.4648 41.2422 84.1602 41.1562 84.8633 41.0352L85.0156 42.1367C84.2461 42.2695 83.4883 42.3574 82.7422 42.4004C81.9961 42.4434 81.0938 42.4648 80.0352 42.4648H79.1562V35.457Z" fill="#1A1A1B"/>
</g>
<g opacity="0.3">
<path fill-rule="evenodd" clip-rule="evenodd" d="M164 9.56494C158.201 9.56494 153.5 13.8179 153.5 19.0649C153.5 21.5919 154.598 23.8819 156.376 25.5849L154.392 28.5649C154.373 28.6558 154.38 28.7501 154.412 28.8371C154.444 28.9241 154.5 29.0006 154.573 29.0579C154.646 29.1151 154.733 29.151 154.825 29.1614C154.918 29.1719 155.011 29.1565 155.095 29.1169L160.942 28.1529C161.938 28.4267 162.967 28.5652 164 28.5649C169.799 28.5649 174.5 24.3119 174.5 19.0649C174.5 13.8179 169.799 9.56494 164 9.56494Z" fill="#1A1A1B"/>
<path d="M157.215 37.6719C157.215 38.2305 157.293 38.7715 157.449 39.2949C157.605 39.8184 157.846 40.293 158.17 40.7188C158.494 41.1445 158.898 41.4844 159.383 41.7383L158.645 42.6992C158.168 42.4492 157.76 42.1055 157.42 41.668C157.08 41.2305 156.811 40.7246 156.611 40.1504C156.416 40.7715 156.148 41.3223 155.809 41.8027C155.469 42.2832 155.059 42.6602 154.578 42.9336L153.828 41.9727C154.305 41.6953 154.703 41.3301 155.023 40.877C155.348 40.4199 155.588 39.916 155.744 39.3652C155.9 38.8145 155.98 38.25 155.984 37.6719V37.3789H154.133V36.3125H155.984V34.8242H157.215V36.3125H159.043V37.3789H157.215V37.6719ZM159.605 34.6367H160.836V38.5977H161.926V34.4492H163.168V45.043H161.926V39.6758H160.836V44.5273H159.605V34.6367ZM170.059 36.2422H166.262V37.25H169.754V38.2695H166.262V39.2891H166.672C167.609 39.2891 168.385 39.2715 168.998 39.2363C169.615 39.2012 170.23 39.1328 170.844 39.0312L170.973 40.0625C170.293 40.1758 169.607 40.252 168.916 40.291C168.229 40.3262 167.344 40.3438 166.262 40.3438H165.84H164.938V35.2109H170.059V36.2422ZM165.98 43.0508C165.98 42.6367 166.123 42.2812 166.408 41.9844C166.697 41.6836 167.113 41.457 167.656 41.3047C168.203 41.1484 168.852 41.0703 169.602 41.0703C170.34 41.0703 170.98 41.1484 171.523 41.3047C172.07 41.4609 172.49 41.6875 172.783 41.9844C173.076 42.2812 173.223 42.6367 173.223 43.0508C173.223 43.4648 173.076 43.8203 172.783 44.1172C172.49 44.4141 172.07 44.6406 171.523 44.7969C170.98 44.9531 170.34 45.0312 169.602 45.0312C168.852 45.0312 168.203 44.9531 167.656 44.7969C167.113 44.6406 166.697 44.4141 166.408 44.1172C166.123 43.8203 165.98 43.4648 165.98 43.0508ZM167.281 43.0508C167.277 43.3672 167.475 43.6094 167.873 43.7773C168.271 43.9414 168.848 44.0234 169.602 44.0234C170.34 44.0234 170.91 43.9395 171.312 43.7715C171.719 43.6035 171.922 43.3633 171.922 43.0508C171.922 42.7383 171.719 42.498 171.312 42.3301C170.91 42.1621 170.34 42.0781 169.602 42.0781C168.848 42.0781 168.271 42.1621 167.873 42.3301C167.475 42.498 167.277 42.7383 167.281 43.0508ZM171.863 34.4609H173.176V40.918H171.863V34.4609Z" fill="#1A1A1B"/>
</g>
<path fill-rule="evenodd" clip-rule="evenodd" d="M260 20.0546C262.981 20.0546 265.397 17.6384 265.397 14.6577C265.397 11.6771 262.981 9.26086 260 9.26086C257.019 9.26086 254.603 11.6771 254.603 14.6577C254.603 17.6384 257.019 20.0546 260 20.0546ZM251.006 24.8384C250.266 25.501 250.266 26.6421 251.006 27.3047C253.393 29.4405 256.545 30.7392 260 30.7392C263.455 30.7392 266.607 29.4405 268.994 27.3047C269.734 26.6421 269.734 25.501 268.994 24.8384C266.607 22.7025 263.455 21.4038 260 21.4038C256.545 21.4038 253.393 22.7025 251.006 24.8384Z" fill="#0030DF"/>
<path d="M254.475 43.7656H244.795V42.6758H254.475V43.7656ZM245.592 35.4336H253.631V36.4766H252.084V39.8516H253.596V40.8828H245.627V39.8516H247.115V36.4766H245.592V35.4336ZM250.795 39.8516V36.4766H248.416V39.8516H250.795ZM264.846 43.8125H255.166V42.7344H259.338V41.0117H256.314V37.543H262.408V36.2305H256.291V35.1758H263.697V38.5742H257.615V39.9453H263.943V41.0117H260.627V42.7344H264.846V43.8125ZM274.373 39.9102H273.072V34.4492H274.373V39.9102ZM265.713 38.6094C265.955 38.6094 266.357 38.6055 266.92 38.5977V36.1367H265.994V35.1289H271.748V36.1367H270.799V38.4395C271.248 38.4082 271.713 38.3633 272.193 38.3047L272.252 39.2422C270.576 39.5078 268.443 39.6406 265.854 39.6406L265.713 38.6094ZM267.271 40.3555H274.373V43.0859H268.584V43.918H274.713V44.9492H267.295V42.1367H273.084V41.375H267.271V40.3555ZM268.174 38.5684C268.635 38.5566 269.096 38.5391 269.557 38.5156V36.1367H268.174V38.5684Z" fill="#0030DF"/>
</g>
<defs>
<filter id="filter0_d_90_1219" x="0" y="0" width="328" height="64" filterUnits="userSpaceOnUse" color-interpolation-filters="sRGB">
<feFlood flood-opacity="0" result="BackgroundImageFix"/>
<feColorMatrix in="SourceAlpha" type="matrix" values="0 0 0 0 0 0 0 0 0 0 0 0 0 0 0 0 0 0 127 0" result="hardAlpha"/>
<feOffset dy="4"/>
<feGaussianBlur stdDeviation="2"/>
<feComposite in2="hardAlpha" operator="out"/>
<feColorMatrix type="matrix" values="0 0 0 0 0 0 0 0 0 0 0 0 0 0 0 0 0 0 0.25 0"/>
<feBlend mode="normal" in2="BackgroundImageFix" result="effect1_dropShadow_90_1219"/>
<feBlend mode="normal" in="SourceGraphic" in2="effect1_dropShadow_90_1219" result="shape"/>
</filter>
</defs>
</svg>
