<svg width="20" height="22" viewBox="0 0 20 22" fill="none" xmlns="http://www.w3.org/2000/svg">
<path fill-rule="evenodd" clip-rule="evenodd" d="M9.99999 11.1405C12.9806 11.1405 15.3969 8.72426 15.3969 5.74365C15.3969 2.76304 12.9806 0.346771 9.99999 0.346771C7.01938 0.346771 4.60312 2.76304 4.60312 5.74365C4.60312 8.72426 7.01938 11.1405 9.99999 11.1405ZM1.00627 15.9243C0.265825 16.5869 0.265825 17.728 1.00627 18.3906C3.39317 20.5264 6.54492 21.8251 10 21.8251C13.4551 21.8251 16.6068 20.5264 18.9937 18.3906C19.7342 17.728 19.7342 16.5869 18.9937 15.9243C16.6068 13.7885 13.4551 12.4897 10 12.4897C6.54492 12.4897 3.39317 13.7885 1.00627 15.9243Z" fill="#0030DF"/>
</svg>
