<svg width="360" height="780" viewBox="0 0 360 780" fill="none" xmlns="http://www.w3.org/2000/svg">
<g clip-path="url(#clip0_58_3235)">
<rect width="360" height="780" fill="white"/>
<g filter="url(#filter0_dd_58_3235)">
<rect width="360" height="44" transform="translate(0 24.1667)" fill="white"/>
<path d="M145.6 53.7839H143.49V37.7878H145.6V53.7839ZM131.537 48.8796C133.125 47.9363 134.309 46.8699 135.088 45.6804C135.873 44.491 136.345 43.0964 136.503 41.4968H132.416V39.6863H138.727C138.727 41.2742 138.542 42.698 138.173 43.9578H140.098V38.1394H142.189V53.0808H140.098V45.7332H137.479C137.01 46.6707 136.392 47.532 135.624 48.3171C134.856 49.1023 133.916 49.8171 132.803 50.4617L131.537 48.8796ZM159.908 44.0457H162.264V45.8914H159.908V53.7839H157.693V37.7878H159.908V44.0457ZM147.199 40.1785H150.82V38.0339H153.07V40.1785H156.604V41.9714H147.199V40.1785ZM147.85 46.6824C147.85 45.95 148.025 45.2937 148.377 44.7136C148.729 44.1335 149.215 43.6824 149.836 43.3601C150.463 43.032 151.166 42.8679 151.945 42.8679C152.713 42.8679 153.407 43.032 154.028 43.3601C154.649 43.6824 155.136 44.1335 155.487 44.7136C155.845 45.2937 156.023 45.95 156.023 46.6824C156.023 47.4148 155.845 48.071 155.487 48.6511C155.136 49.2253 154.649 49.6765 154.028 50.0046C153.407 50.3328 152.713 50.4968 151.945 50.4968C151.166 50.4968 150.463 50.3328 149.836 50.0046C149.215 49.6765 148.729 49.2253 148.377 48.6511C148.025 48.071 147.85 47.4148 147.85 46.6824ZM149.994 46.6824C149.994 47.0867 150.076 47.4382 150.24 47.7371C150.41 48.0359 150.642 48.2644 150.935 48.4226C151.228 48.5808 151.564 48.657 151.945 48.6511C152.32 48.657 152.654 48.5808 152.947 48.4226C153.24 48.2644 153.469 48.0359 153.633 47.7371C153.797 47.4382 153.879 47.0867 153.879 46.6824C153.879 46.2781 153.797 45.9265 153.633 45.6277C153.469 45.3289 153.24 45.0974 152.947 44.9333C152.654 44.7693 152.32 44.6843 151.945 44.6785C151.564 44.6843 151.228 44.7693 150.935 44.9333C150.642 45.0974 150.41 45.3289 150.24 45.6277C150.076 45.9265 149.994 46.2781 149.994 46.6824ZM177.434 47.5964H162.844V45.8035H169.014V44.2566H171.229V45.8035H177.434V47.5964ZM163.459 43.325C164.549 43.2605 165.475 43.1169 166.236 42.8943C167.004 42.6658 167.596 42.3875 168.012 42.0593C168.434 41.7312 168.7 41.3738 168.812 40.9871H164.25V39.2117H169.014V37.8406H171.229V39.2117H176.027V40.9871H171.422C171.527 41.3738 171.791 41.7312 172.213 42.0593C172.635 42.3875 173.227 42.6658 173.988 42.8943C174.756 43.1169 175.688 43.2605 176.783 43.325L176.115 45.03C174.656 44.9246 173.42 44.6697 172.406 44.2654C171.393 43.8611 170.631 43.3308 170.121 42.6746C169.611 43.3308 168.85 43.8611 167.836 44.2654C166.822 44.6697 165.592 44.9246 164.145 45.03L163.459 43.325ZM164.514 51.0593C164.514 50.4792 164.733 49.9871 165.173 49.5828C165.618 49.1785 166.26 48.8738 167.098 48.6687C167.941 48.4578 168.949 48.3523 170.121 48.3523C171.287 48.3523 172.286 48.4578 173.118 48.6687C173.95 48.8738 174.586 49.1785 175.025 49.5828C175.465 49.9871 175.688 50.4792 175.693 51.0593C175.688 51.6453 175.465 52.1404 175.025 52.5447C174.586 52.9548 173.95 53.2625 173.118 53.4675C172.286 53.6785 171.287 53.7839 170.121 53.7839C168.949 53.7839 167.941 53.6785 167.098 53.4675C166.26 53.2625 165.618 52.9548 165.173 52.5447C164.733 52.1404 164.514 51.6453 164.514 51.0593ZM166.799 51.0593C166.793 51.4285 167.062 51.7009 167.607 51.8767C168.158 52.0466 168.996 52.1316 170.121 52.1316C171.229 52.1316 172.058 52.0437 172.608 51.8679C173.159 51.6921 173.438 51.4226 173.443 51.0593C173.438 50.7019 173.156 50.4382 172.6 50.2683C172.049 50.0925 171.223 50.0046 170.121 50.0046C168.996 50.0046 168.158 50.0925 167.607 50.2683C167.062 50.4382 166.793 50.7019 166.799 51.0593ZM192.99 47.5964H178.4V45.8035H184.57V44.2566H186.785V45.8035H192.99V47.5964ZM179.016 43.325C180.105 43.2605 181.031 43.1169 181.793 42.8943C182.561 42.6658 183.152 42.3875 183.568 42.0593C183.99 41.7312 184.257 41.3738 184.368 40.9871H179.807V39.2117H184.57V37.8406H186.785V39.2117H191.584V40.9871H186.979C187.084 41.3738 187.348 41.7312 187.77 42.0593C188.191 42.3875 188.783 42.6658 189.545 42.8943C190.312 43.1169 191.244 43.2605 192.34 43.325L191.672 45.03C190.213 44.9246 188.977 44.6697 187.963 44.2654C186.949 43.8611 186.188 43.3308 185.678 42.6746C185.168 43.3308 184.406 43.8611 183.393 44.2654C182.379 44.6697 181.148 44.9246 179.701 45.03L179.016 43.325ZM180.07 51.0593C180.07 50.4792 180.29 49.9871 180.729 49.5828C181.175 49.1785 181.816 48.8738 182.654 48.6687C183.498 48.4578 184.506 48.3523 185.678 48.3523C186.844 48.3523 187.843 48.4578 188.675 48.6687C189.507 48.8738 190.143 49.1785 190.582 49.5828C191.021 49.9871 191.244 50.4792 191.25 51.0593C191.244 51.6453 191.021 52.1404 190.582 52.5447C190.143 52.9548 189.507 53.2625 188.675 53.4675C187.843 53.6785 186.844 53.7839 185.678 53.7839C184.506 53.7839 183.498 53.6785 182.654 53.4675C181.816 53.2625 181.175 52.9548 180.729 52.5447C180.29 52.1404 180.07 51.6453 180.07 51.0593ZM182.355 51.0593C182.35 51.4285 182.619 51.7009 183.164 51.8767C183.715 52.0466 184.553 52.1316 185.678 52.1316C186.785 52.1316 187.614 52.0437 188.165 51.8679C188.716 51.6921 188.994 51.4226 189 51.0593C188.994 50.7019 188.713 50.4382 188.156 50.2683C187.605 50.0925 186.779 50.0046 185.678 50.0046C184.553 50.0046 183.715 50.0925 183.164 50.2683C182.619 50.4382 182.35 50.7019 182.355 51.0593ZM204.1 40.53C204.1 41.2449 204.231 41.9275 204.495 42.5779C204.759 43.2283 205.163 43.8113 205.708 44.3269C206.253 44.8367 206.936 45.2292 207.756 45.5046L206.543 47.2625C205.717 46.9578 205.005 46.5242 204.407 45.9617C203.815 45.3992 203.347 44.7371 203.001 43.9753C202.649 44.8367 202.157 45.5808 201.524 46.2078C200.892 46.8289 200.121 47.3035 199.213 47.6316L198 45.8738C198.861 45.5925 199.576 45.1794 200.145 44.6345C200.719 44.0896 201.141 43.4656 201.41 42.7625C201.686 42.0535 201.826 41.3035 201.832 40.5125V38.7722H204.1V40.53ZM200.936 48.3699H203.203V51.7097H211.922V53.5027H200.936V48.3699ZM206.35 41.198H209.355V37.8054H211.588V49.6179H209.355V43.0085H206.35V41.198ZM216.229 42.8152H218.408V39.2117H220.482V49.9871H214.119V39.2117H216.229V42.8152ZM218.408 48.1941V44.573H216.229V48.1941H218.408ZM221.818 38.0164H223.945V43.8875H225.387V37.7878H227.531V53.7839H225.387V45.7156H223.945V53.0457H221.818V38.0164Z" fill="#1A1A1B"/>
<path d="M337.466 36.4181C337.075 36.0276 336.442 36.0276 336.051 36.4181L335.374 37.0958C334.983 37.4863 334.983 38.1194 335.374 38.51L338.143 41.2795C338.534 41.6701 339.167 41.6701 339.557 41.2795L340.235 40.6019C340.626 40.2113 340.626 39.5782 340.235 39.1876L337.466 36.4181Z" fill="#A3A3A4"/>
<path d="M333.113 39.3567C333.503 38.9662 334.136 38.9662 334.527 39.3567L337.297 42.1262C337.687 42.5168 337.687 43.1499 337.297 43.5405L324.959 55.8783L324.954 55.8827L324.952 55.8802L320.917 56.9613C320.173 57.1606 319.493 56.4802 319.692 55.7366L320.773 51.7016L320.77 51.699L333.113 39.3567Z" fill="#A3A3A4"/>
</g>
<rect x="140.5" y="88" width="80" height="80" rx="40" fill="#EFF2FF"/>
<circle cx="180.5" cy="118.922" r="13.7171" fill="#99ACF2"/>
<path fill-rule="evenodd" clip-rule="evenodd" d="M157.641 151.066C155.759 149.382 155.759 146.482 157.641 144.798C163.708 139.369 171.718 136.068 180.5 136.068C189.282 136.068 197.292 139.369 203.359 144.798C205.241 146.482 205.241 149.382 203.359 151.066C197.292 156.495 189.282 159.795 180.5 159.795C171.718 159.795 163.708 156.495 157.641 151.066Z" fill="#99ACF2"/>
<path d="M158.141 183.828H155.328V205.156H158.141V183.828ZM139.391 198.617L141.078 200.727C144.113 198.969 146.094 196.859 147.312 194.422H150.805V204.219H153.594V184.297H150.805V192.055H148.238C148.754 190.297 148.977 188.398 148.977 186.359H140.562V188.773H146.012C145.602 192.957 143.703 196.062 139.391 198.617ZM177.219 183.828H174.266V205.156H177.219V194.633H180.359V192.172H177.219V183.828ZM160.273 189.406H172.812V187.016H168.102V184.156H165.102V187.016H160.273V189.406ZM161.141 195.688C161.129 198.664 163.449 200.762 166.602 200.773C169.707 200.762 172.039 198.664 172.039 195.688C172.039 192.711 169.707 190.59 166.602 190.602C163.449 190.59 161.129 192.711 161.141 195.688ZM164 195.688C164 194.047 165.09 193.039 166.602 193.016C168.09 193.039 169.18 194.047 169.18 195.688C169.18 197.34 168.09 198.324 166.602 198.312C165.09 198.324 164 197.34 164 195.688ZM200.586 194.516H192.312V192.453H189.359V194.516H181.133V196.906H200.586V194.516ZM181.953 191.211L182.867 193.484C186.77 193.203 189.488 192.066 190.836 190.344C192.172 192.066 194.891 193.203 198.828 193.484L199.719 191.211C195.16 190.941 192.98 189.57 192.57 188.094H198.711V185.727H192.312V183.898H189.359V185.727H183.008V188.094H189.09C188.668 189.57 186.5 190.941 181.953 191.211ZM183.359 201.523C183.359 203.879 186.137 205.168 190.836 205.156C195.512 205.168 198.242 203.879 198.266 201.523C198.242 199.191 195.512 197.902 190.836 197.914C186.137 197.902 183.359 199.191 183.359 201.523ZM186.406 201.523C186.395 200.562 187.848 200.117 190.836 200.117C193.754 200.117 195.254 200.562 195.266 201.523C195.254 202.508 193.754 202.953 190.836 202.953C187.848 202.953 186.395 202.508 186.406 201.523ZM221.328 194.516H213.055V192.453H210.102V194.516H201.875V196.906H221.328V194.516ZM202.695 191.211L203.609 193.484C207.512 193.203 210.23 192.066 211.578 190.344C212.914 192.066 215.633 193.203 219.57 193.484L220.461 191.211C215.902 190.941 213.723 189.57 213.312 188.094H219.453V185.727H213.055V183.898H210.102V185.727H203.75V188.094H209.832C209.41 189.57 207.242 190.941 202.695 191.211ZM204.102 201.523C204.102 203.879 206.879 205.168 211.578 205.156C216.254 205.168 218.984 203.879 219.008 201.523C218.984 199.191 216.254 197.902 211.578 197.914C206.879 197.902 204.102 199.191 204.102 201.523ZM207.148 201.523C207.137 200.562 208.59 200.117 211.578 200.117C214.496 200.117 215.996 200.562 216.008 201.523C215.996 202.508 214.496 202.953 211.578 202.953C208.59 202.953 207.137 202.508 207.148 201.523Z" fill="#1A1A1B"/>
<path opacity="0.8" d="M48.6484 226.688H47.2734V230.719H48.6484V226.688ZM55.0547 227.422V226.109H53.5859V227.484C53.5703 229.586 52.2734 231.453 50.0391 232.219L50.8359 233.406C52.5312 232.797 53.75 231.539 54.3516 229.938C54.9609 231.344 56.0938 232.422 57.6328 232.984L58.4453 231.828C56.3203 231.133 55.0469 229.383 55.0547 227.422ZM52.3359 236.656C52.3281 238.344 54.125 239.305 57.0703 239.297C60 239.305 61.7969 238.344 61.8047 236.656C61.7969 234.961 60 233.977 57.0703 233.984C54.125 233.977 52.3281 234.961 52.3359 236.656ZM53.8047 236.656C53.7969 235.695 55.0156 235.141 57.0703 235.141C59.1094 235.141 60.3281 235.695 60.3359 236.656C60.3281 237.586 59.1094 238.133 57.0703 238.125C55.0156 238.133 53.7969 237.586 53.8047 236.656ZM57.3203 229.391H60.2734V233.594H61.7578V225.328H60.2734V228.172H57.3203V229.391ZM68.7734 227.891V226.188H67.3047V227.844C67.2969 229.93 66.0234 231.82 63.8047 232.578L64.6328 233.75C66.2734 233.141 67.4766 231.922 68.0859 230.344C68.7031 231.758 69.875 232.875 71.4453 233.422L72.2109 232.25C70.0781 231.531 68.7734 229.766 68.7734 227.891ZM66.0547 239.031H75.5234V237.828H67.5703V234.641H66.0547V239.031ZM73.4297 235.641H74.9141V230.797H76.9453V229.531H74.9141V225.312H73.4297V235.641ZM89.1016 232.5H80.8516V230.594H88.6641V229.422H80.8516V227.625H88.9609V226.406H79.3516V233.688H83.3828V236.422H77.7422V237.641H90.5547V236.422H84.8672V233.688H89.1016V232.5ZM102.57 225.328H101.086V233.766H102.57V230.125H104.602V228.906H102.57V225.328ZM92.1172 232.875H98.7109V226.203H97.2422V228.297H93.5703V226.203H92.1172V232.875ZM93.3203 235.672H101.086V239.328H102.57V234.469H93.3203V235.672ZM93.5703 231.688V229.469H97.2422V231.688H93.5703ZM116.992 225.328H115.508V239.359H116.992V225.328ZM105.883 231.281C105.883 234.305 107.391 236.211 109.508 236.203C111.586 236.211 113.117 234.305 113.117 231.281C113.117 228.289 111.586 226.383 109.508 226.375C107.391 226.383 105.883 228.289 105.883 231.281ZM107.32 231.281C107.312 229.086 108.203 227.711 109.508 227.703C110.789 227.711 111.68 229.086 111.68 231.281C111.68 233.508 110.789 234.875 109.508 234.875C108.203 234.875 107.312 233.508 107.32 231.281ZM120.992 226.688H119.617V230.719H120.992V226.688ZM138.367 225.328H136.961V239.328H138.367V225.328ZM126.289 235.281L127.133 236.344C129.109 235.188 130.445 233.766 131.273 232.141H134.008V238.641H135.414V225.688H134.008V230.953H131.789C132.219 229.734 132.406 228.43 132.414 227.062H126.945V228.281H130.938C130.68 231.164 129.258 233.516 126.289 235.281ZM151.07 225.328H149.602V239.328H151.07V232.234H153.32V231H151.07V225.328ZM140.086 228.734H148.383V227.516H145.023V225.516H143.539V227.516H140.086V228.734ZM140.805 233.016C140.805 234.938 142.273 236.273 144.289 236.281C146.297 236.273 147.766 234.938 147.773 233.016C147.766 231.109 146.297 229.766 144.289 229.766C142.273 229.766 140.805 231.109 140.805 233.016ZM142.227 233.016C142.219 231.82 143.094 230.992 144.289 230.984C145.477 230.992 146.344 231.82 146.352 233.016C146.344 234.234 145.477 235.047 144.289 235.031C143.094 235.047 142.219 234.234 142.227 233.016ZM170.695 232.344H157.883V233.547H163.648V236.266H165.148V233.547H170.695V232.344ZM159.289 228.5C159.281 230.242 161.266 231.328 164.273 231.328C167.281 231.328 169.25 230.242 169.242 228.5C169.25 226.75 167.281 225.664 164.273 225.656C161.266 225.664 159.281 226.75 159.289 228.5ZM159.492 239.031H169.273V237.812H160.977V234.922H159.492V239.031ZM160.883 228.5C160.867 227.461 162.227 226.852 164.273 226.844C166.328 226.852 167.672 227.461 167.68 228.5C167.672 229.508 166.328 230.125 164.273 230.125C162.227 230.125 160.867 229.508 160.883 228.5ZM175.602 226.141C173.492 226.133 171.922 227.523 171.93 229.5C171.922 231.453 173.492 232.852 175.602 232.844C176.758 232.852 177.75 232.422 178.406 231.703H181.914V233.594H183.398V225.328H181.914V227.297H178.414C177.758 226.57 176.766 226.133 175.602 226.141ZM173.352 229.5C173.344 228.242 174.289 227.406 175.602 227.422C176.875 227.406 177.82 228.242 177.82 229.5C177.82 230.727 176.875 231.594 175.602 231.578C174.289 231.594 173.344 230.727 173.352 229.5ZM173.977 236.609C173.969 238.312 175.781 239.305 178.711 239.297C181.625 239.305 183.438 238.312 183.445 236.609C183.438 234.898 181.625 233.898 178.711 233.906C175.781 233.898 173.969 234.898 173.977 236.609ZM175.43 236.609C175.422 235.609 176.656 235.055 178.711 235.047C180.766 235.055 181.992 235.609 181.992 236.609C181.992 237.57 180.766 238.133 178.711 238.125C176.656 238.133 175.422 237.57 175.43 236.609ZM179.094 228.484H181.914V230.484H179.094C179.188 230.18 179.242 229.844 179.242 229.5C179.242 229.141 179.188 228.797 179.094 228.484ZM194.242 226.688H192.555L189.742 228.531V230.172L192.445 228.406H192.508V238H194.242V226.688ZM201.055 238.156C203.672 238.156 205.203 236.047 205.211 232.344C205.203 228.664 203.648 226.531 201.055 226.531C198.453 226.531 196.898 228.664 196.898 232.344C196.898 236.047 198.438 238.156 201.055 238.156ZM198.617 232.344C198.617 229.531 199.531 227.992 201.055 227.984C202.57 227.992 203.492 229.531 203.492 232.344C203.492 235.164 202.578 236.672 201.055 236.672C199.523 236.672 198.609 235.164 198.617 232.344ZM218.18 225.344H216.695V227.078H212.852V228.266H216.695V229.734H212.852V230.922H216.695V235.688H218.18V225.344ZM207.336 233.688H208.414C210.469 233.672 212.367 233.586 214.586 233.172L214.43 231.953C212.43 232.328 210.664 232.43 208.805 232.438V226.312H207.336V233.688ZM209.055 239.031H218.539V237.828H210.555V234.781H209.055V239.031ZM235.914 225.344H234.43V227.828H231.391C231.484 227.359 231.539 226.859 231.539 226.344H225.133V227.562H229.93C229.664 229.82 227.727 231.602 224.414 232.547L225.008 233.703C228.039 232.836 230.141 231.25 231.047 229H234.43V230.703H230.898V231.922H234.43V233.625H235.914V225.344ZM226.586 236.516C226.586 238.219 228.43 239.266 231.305 239.266C234.141 239.266 236 238.219 236.008 236.516C236 234.82 234.141 233.789 231.305 233.781C228.43 233.789 226.586 234.82 226.586 236.516ZM228.055 236.516C228.055 235.516 229.305 234.945 231.305 234.953C233.266 234.945 234.516 235.516 234.523 236.516C234.516 237.5 233.266 238.07 231.305 238.078C229.305 238.07 228.055 237.5 228.055 236.516ZM249.742 225.328H248.258V229.531H246.07V230.766H248.258V233.812H249.742V225.328ZM238.086 227.906H246.289V226.719H242.93V225.203H241.461V226.719H238.086V227.906ZM238.898 231.047C238.898 232.555 240.273 233.555 242.195 233.562C244.117 233.555 245.477 232.555 245.477 231.047C245.477 229.578 244.117 228.547 242.195 228.547C240.273 228.547 238.898 229.578 238.898 231.047ZM240.32 231.047C240.32 230.227 241.078 229.68 242.195 229.688C243.297 229.68 244.055 230.227 244.055 231.047C244.055 231.898 243.297 232.43 242.195 232.438C241.078 232.43 240.32 231.898 240.32 231.047ZM240.508 239.156H249.742V234.5H240.508V239.156ZM241.977 237.953V235.672H248.289V237.953H241.977ZM256.758 234.578V233.906H255.32V234.578C255.312 235.93 254.336 237.391 252.539 238.031L253.289 239.125C254.609 238.641 255.531 237.711 256.039 236.609C256.469 237.75 257.32 238.742 258.664 239.25C259.945 238.719 260.781 237.695 261.227 236.57C261.711 237.711 262.656 238.648 264.039 239.125L264.773 238.031C262.945 237.438 261.984 236.031 261.992 234.578V233.906H260.539V234.578C260.539 235.656 259.906 236.992 258.625 237.812C257.352 237.055 256.758 235.781 256.758 234.578ZM252.18 229.422C252.188 231.359 253.766 232.703 255.914 232.703C258.055 232.703 259.633 231.359 259.633 229.422C259.633 227.461 258.055 226.117 255.914 226.109C253.766 226.117 252.188 227.461 252.18 229.422ZM253.633 229.422C253.625 228.195 254.586 227.367 255.914 227.375C257.227 227.367 258.18 228.195 258.18 229.422C258.18 230.641 257.227 231.469 255.914 231.469C254.586 231.469 253.625 230.641 253.633 229.422ZM262.023 233.312H263.508V225.344H262.023V233.312ZM268.773 233.719H267.305V239.156H276.836V233.719H275.352V235.203H268.773V233.719ZM265.727 232.844H278.492V231.609H265.727V232.844ZM266.414 229.578L266.977 230.75C269.227 230.438 271.211 229.367 272.117 227.867C273.016 229.359 274.992 230.438 277.258 230.75L277.789 229.578C275.109 229.25 272.875 227.688 272.867 226.078V225.484H271.352V226.078C271.344 227.734 269.125 229.227 266.414 229.578ZM268.773 237.969V236.359H275.352V237.969H268.773ZM291.18 225.328H289.695V239.328H291.18V225.328ZM280.414 235.766H281.586C283.797 235.773 286.047 235.602 288.523 235.094L288.32 233.844C286.078 234.297 283.93 234.477 281.883 234.484V226.688H280.414V235.766ZM304.289 225.328H302.805V239.359H304.289V231.969H306.539V230.75H304.289V225.328ZM293.977 235.875H295.102C297.703 235.883 299.562 235.812 301.758 235.422L301.57 234.172C299.57 234.531 297.812 234.633 295.461 234.641V227.875H300.523V226.672H293.977V235.875ZM308.805 238.109C309.406 238.102 309.906 237.609 309.914 237C309.906 236.391 309.406 235.891 308.805 235.891C308.195 235.891 307.688 236.391 307.695 237C307.688 237.609 308.195 238.102 308.805 238.109ZM55.3359 247.344H53.8516V250.984H51.6016V252.203H53.8516V253.938H51.6016V255.125H53.8516V258.016H55.3359V247.344ZM43.6797 250.172H51.5547V248.969H48.4297V247.328H46.9609V248.969H43.6797V250.172ZM44.4609 253.531C44.4609 255.141 45.7891 256.234 47.6797 256.234C49.5625 256.234 50.9062 255.141 50.9141 253.531C50.9062 251.93 49.5625 250.836 47.6797 250.844C45.7891 250.836 44.4609 251.93 44.4609 253.531ZM45.8516 253.531C45.8438 252.609 46.5938 252.016 47.6797 252C48.75 252.016 49.5078 252.609 49.5234 253.531C49.5078 254.484 48.75 255.078 47.6797 255.078C46.5938 255.078 45.8438 254.484 45.8516 253.531ZM46.1953 261.031H55.6484V259.828H47.6953V257.078H46.1953V261.031ZM69.0859 247.328H67.6172V254.531H69.0859V247.328ZM57.5391 253.281L58.2891 254.453C59.9609 253.883 61.2109 252.664 61.8438 251.133C62.4766 252.555 63.7031 253.656 65.3359 254.188L66.0703 253.031C63.9219 252.359 62.5781 250.656 62.5859 248.781V247.703H61.0703V248.781C61.0625 250.719 59.7266 252.555 57.5391 253.281ZM59.8984 256.375H67.6328V257.578H59.9453V261.188H69.5703V260H61.3828V258.703H69.1016V255.203H59.8984V256.375ZM76.3359 249.812V249.438H79.3359V248.234H71.7891V249.438H74.8203V249.828C74.8281 251.727 73.4844 253.594 71.3359 254.328L72.1016 255.5C73.7656 254.914 74.9922 253.68 75.6016 252.141C76.2109 253.523 77.375 254.648 78.9453 255.188L79.7109 254.031C77.5938 253.305 76.3281 251.578 76.3359 249.812ZM73.5078 257.609H81.5078V261.328H82.9922V256.406H73.5078V257.609ZM78.9141 252.109H81.5078V255.703H82.9922V247.328H81.5078V250.891H78.9141V252.109ZM96.7422 247.328H95.2578V261.359H96.7422V247.328ZM85.6328 253.281C85.6328 256.305 87.1406 258.211 89.2578 258.203C91.3359 258.211 92.8672 256.305 92.8672 253.281C92.8672 250.289 91.3359 248.383 89.2578 248.375C87.1406 248.383 85.6328 250.289 85.6328 253.281ZM87.0703 253.281C87.0625 251.086 87.9531 249.711 89.2578 249.703C90.5391 249.711 91.4297 251.086 91.4297 253.281C91.4297 255.508 90.5391 256.875 89.2578 256.875C87.9531 256.875 87.0625 255.508 87.0703 253.281ZM110.305 248.672H100.32V249.875H108.82V250.047C108.812 251.727 108.812 253.711 108.273 256.422L109.773 256.578C110.297 253.711 110.297 251.773 110.305 250.047V248.672ZM98.9766 259.438H111.742V258.203H105.305V253.266H103.836V258.203H98.9766V259.438ZM128.805 247.328H127.383V252.891H125.711V247.594H124.305V260.641H125.711V254.141H127.383V261.328H128.805V247.328ZM116.523 257.375L117.445 258.5C118.875 257.656 119.797 256.188 120.273 254.352C120.773 255.961 121.695 257.266 123.07 258.016L123.945 256.875C121.906 255.828 120.961 253.547 120.961 251.031V250.125H123.398V248.922H116.898V250.125H119.523V251.031C119.523 253.812 118.57 256.227 116.523 257.375ZM137.883 248.672H131.32V257.875H137.883V248.672ZM132.789 256.672V249.844H136.445V256.672H132.789ZM140.648 261.359H142.133V247.328H140.648V261.359ZM149.227 256.578V255.906H147.789V256.578C147.781 257.93 146.805 259.391 145.008 260.031L145.758 261.125C147.078 260.641 148 259.711 148.508 258.609C148.938 259.75 149.789 260.742 151.133 261.25C152.414 260.719 153.25 259.695 153.695 258.57C154.18 259.711 155.125 260.648 156.508 261.125L157.242 260.031C155.414 259.438 154.453 258.031 154.461 256.578V255.906H153.008V256.578C153.008 257.656 152.375 258.992 151.094 259.812C149.82 259.055 149.227 257.781 149.227 256.578ZM144.648 251.422C144.656 253.359 146.234 254.703 148.383 254.703C150.523 254.703 152.102 253.359 152.102 251.422C152.102 249.461 150.523 248.117 148.383 248.109C146.234 248.117 144.656 249.461 144.648 251.422ZM146.102 251.422C146.094 250.195 147.055 249.367 148.383 249.375C149.695 249.367 150.648 250.195 150.648 251.422C150.648 252.641 149.695 253.469 148.383 253.469C147.055 253.469 146.094 252.641 146.102 251.422ZM154.492 255.312H155.977V247.344H154.492V255.312ZM170.227 247.328H168.82V261.328H170.227V247.328ZM158.148 257.281L158.992 258.344C160.969 257.188 162.305 255.766 163.133 254.141H165.867V260.641H167.273V247.688H165.867V252.953H163.648C164.078 251.734 164.266 250.43 164.273 249.062H158.805V250.281H162.797C162.539 253.164 161.117 255.516 158.148 257.281ZM187.961 247.328H186.555V261.328H187.961V247.328ZM175.883 257.281L176.727 258.344C178.703 257.188 180.039 255.766 180.867 254.141H183.602V260.641H185.008V247.688H183.602V252.953H181.383C181.812 251.734 182 250.43 182.008 249.062H176.539V250.281H180.531C180.273 253.164 178.852 255.516 175.883 257.281ZM200.664 247.328H199.195V261.328H200.664V254.234H202.914V253H200.664V247.328ZM189.68 250.734H197.977V249.516H194.617V247.516H193.133V249.516H189.68V250.734ZM190.398 255.016C190.398 256.938 191.867 258.273 193.883 258.281C195.891 258.273 197.359 256.938 197.367 255.016C197.359 253.109 195.891 251.766 193.883 251.766C191.867 251.766 190.398 253.109 190.398 255.016ZM191.82 255.016C191.812 253.82 192.688 252.992 193.883 252.984C195.07 252.992 195.938 253.82 195.945 255.016C195.938 256.234 195.07 257.047 193.883 257.031C192.688 257.047 191.812 256.234 191.82 255.016ZM219.43 247.328H218.023V257.797H219.43V247.328ZM208.086 255.141H213.555V252.422H215.289V257.375H216.695V247.578H215.289V251.203H213.555V248.672H208.086V255.141ZM209.477 253.984V249.844H212.18V253.984H209.477ZM210.148 261.031H219.836V259.828H211.617V256.5H210.148V261.031ZM232.68 254.5H224.43V252.594H232.242V251.422H224.43V249.625H232.539V248.406H222.93V255.688H226.961V258.422H221.32V259.641H234.133V258.422H228.445V255.688H232.68V254.5ZM246.758 247.344H245.273V255.922H246.758V247.344ZM235.852 249.422H240.82V251.031H235.883V255.141H237.055C239.703 255.141 241.609 255.078 243.898 254.703L243.711 253.5C241.578 253.828 239.789 253.906 237.336 253.922V252.172H242.289V248.203H235.852V249.422ZM237.32 258.75C237.32 260.367 239.117 261.305 242.086 261.297C245.047 261.305 246.852 260.367 246.852 258.75C246.852 257.117 245.047 256.18 242.086 256.188C239.117 256.18 237.32 257.117 237.32 258.75ZM238.789 258.75C238.797 257.859 240.008 257.352 242.086 257.359C244.156 257.352 245.367 257.859 245.367 258.75C245.367 259.633 244.156 260.133 242.086 260.125C240.008 260.133 238.797 259.633 238.789 258.75ZM259.805 249.641H257.07V247.734H255.602V249.641H252.852V250.844H259.805V249.641ZM253.305 254.906C253.297 256.82 254.578 258.164 256.336 258.156C258.109 258.164 259.375 256.82 259.383 254.906C259.375 253.023 258.109 251.688 256.336 251.688C254.578 251.688 253.297 253.023 253.305 254.906ZM254.617 254.906C254.609 253.742 255.328 252.93 256.336 252.922C257.344 252.93 258.07 253.742 258.07 254.906C258.07 256.094 257.344 256.891 256.336 256.891C255.328 256.891 254.609 256.094 254.617 254.906ZM260.445 260.672H261.852V254.375H263.461V261.328H264.867V247.328H263.461V253.156H261.852V247.641H260.445V260.672ZM278.055 253.969H269.773V249.797H277.93V248.578H268.305V255.188H278.055V253.969ZM266.711 259.484H279.523V258.25H266.711V259.484ZM292.195 247.328H290.727V250.453H288.07V251.672H290.727V254.266H287.992V255.5H290.727V261.359H292.195V247.328ZM281.023 249.766H285.773V252.5H281.055V258.125H282.117C284.328 258.125 286.117 258.062 288.305 257.719L288.18 256.5C286.188 256.789 284.516 256.883 282.539 256.891V253.672H287.227V248.562H281.023V249.766ZM307.18 258.344H304.117V254.656C305.242 254.023 305.914 253.031 305.914 251.797C305.914 249.594 303.75 248.148 300.742 248.141C297.742 248.148 295.578 249.594 295.586 251.797C295.578 253.055 296.281 254.055 297.43 254.688V258.344H294.367V259.578H307.18V258.344ZM297.023 251.797C297.023 250.289 298.547 249.328 300.742 249.328C302.922 249.328 304.469 250.289 304.477 251.797C304.469 253.297 302.922 254.273 300.742 254.281C298.547 254.273 297.023 253.297 297.023 251.797ZM298.898 258.344V255.234C299.461 255.367 300.086 255.438 300.742 255.438C301.414 255.438 302.047 255.367 302.617 255.234V258.344H298.898ZM309.18 255.234V256.734C309.672 256.117 310.297 255.797 310.992 255.797C312.188 255.797 313.273 256.688 314.492 256.688C315.195 256.688 315.828 256.391 316.352 255.812V254.312C315.859 254.93 315.234 255.25 314.523 255.25C313.336 255.25 312.258 254.359 311.039 254.359C310.336 254.359 309.703 254.656 309.18 255.234Z" fill="#1A1A1B"/>
<rect x="21" y="289" width="311" height="136" rx="16" fill="white"/>
<path d="M51.1875 311.344H49.7031V315.125H47.0312V316.328H49.7031V321.594H51.1875V311.344ZM39.5312 318.672L40.2969 319.875C41.9609 319.281 43.1875 318.047 43.7969 316.5C44.4062 317.891 45.5703 319.016 47.1406 319.562L47.9062 318.375C45.7891 317.672 44.5234 315.914 44.5312 314.172V313.625H47.5312V312.406H39.9844V313.625H43.0156V314.172C43.0234 316.102 41.6797 317.945 39.5312 318.672ZM42.0938 325.031H51.5625V323.828H43.5781V320.672H42.0938V325.031ZM66.1406 318.406H53.3281V319.609H59.1094V322.328H60.5781V319.609H66.1406V318.406ZM54.9219 325.031H64.7188V323.828H56.4062V321H54.9219V325.031ZM54.9688 316.953H64.4844V311.984H54.9688V316.953ZM56.4219 315.781V313.156H63.0156V315.781H56.4219ZM83.875 318.656H71.0625V319.844H76.8438V322.422H78.3125V319.844H83.875V318.656ZM72.6562 325.031H82.4531V323.828H74.125V321.203H72.6562V325.031ZM72.75 317.422H82.1875V311.766H80.7031V313.469H74.2188V311.766H72.75V317.422ZM74.2188 316.234V314.578H80.7031V316.234H74.2188ZM88.6562 312.375C86.5625 312.383 85.0703 314.289 85.0781 317.281C85.0703 320.305 86.5625 322.211 88.6562 322.203C90.75 322.211 92.2422 320.305 92.25 317.281C92.2422 314.289 90.75 312.383 88.6562 312.375ZM86.5 317.281C86.4922 315.086 87.3828 313.711 88.6562 313.703C89.9531 313.711 90.8281 315.086 90.8281 317.281C90.8281 319.508 89.9531 320.875 88.6562 320.875C87.3828 320.875 86.4922 319.508 86.5 317.281ZM94.3281 325.328H95.8125V320.141H97.9844V318.922H95.8125V316.016H97.9844V314.75H95.8125V311.328H94.3281V325.328Z" fill="#A3A3A4"/>
<path d="M52.9062 380.789V380.086H49.8359V380.789C49.8125 383.051 47.3281 385.535 42.5938 386.156L43.7188 388.453C47.3281 387.949 49.9883 386.391 51.3594 384.281C52.7305 386.391 55.3906 387.949 59.0234 388.453L60.1484 386.156C55.3906 385.535 52.9062 383.062 52.9062 380.789ZM41.6328 391.945H49.8594V394.055H43.7891V396.398H55.7422V401.156H58.7188V394.055H52.8125V391.945H61.0859V389.578H41.6328V391.945ZM79.2969 379.828H76.2969V392.648H79.2969V387.469H82.1797V385.055H79.2969V379.828ZM63.0078 391.523H73.3438V381.164H70.3438V384H65.9844V381.164H63.0078V391.523ZM64.9297 395.953H76.2969V401.156H79.2969V393.586H64.9297V395.953ZM65.9844 389.156V386.32H70.3438V389.156H65.9844ZM89.0703 380.742C85.7891 380.719 83.375 382.863 83.3984 385.781C83.375 388.758 85.7891 390.891 89.0703 390.891C91.8125 390.891 94.0039 389.297 94.5547 386.953H98.1172V391.289H101.094V379.828H98.1172V384.562H94.543C93.957 382.277 91.7891 380.719 89.0703 380.742ZM86.2344 385.781C86.2227 384.188 87.3945 383.215 89.0703 383.227C90.6875 383.215 91.8477 384.188 91.8594 385.781C91.8477 387.375 90.6875 388.383 89.0703 388.383C87.3945 388.383 86.2227 387.375 86.2344 385.781ZM86.8672 400.922H101.094V392.227H98.1172V394.289H89.8203V392.227H86.8672V400.922ZM89.8203 398.508V396.586H98.1172V398.508H89.8203Z" fill="#1A1A1B"/>
<rect x="21.5" y="289.5" width="310" height="135" rx="15.5" stroke="black" stroke-opacity="0.1"/>
<rect x="21" y="449" width="311" height="136" rx="16" fill="white"/>
<path d="M50.5312 474.812H52.5312V476.078H50.5312V479.578H49.0469V471.328H50.5312V474.812ZM39.4219 478.25C40.7656 478.25 41.9844 478.237 43.0781 478.211V477.422C42.2604 477.349 41.6224 477.154 41.1641 476.836C40.7057 476.513 40.4792 476.094 40.4844 475.578C40.4792 475.203 40.612 474.88 40.8828 474.609C41.1536 474.333 41.5391 474.125 42.0391 473.984C42.5443 473.839 43.1354 473.766 43.8125 473.766C44.4844 473.766 45.0703 473.839 45.5703 473.984C46.0703 474.125 46.4557 474.333 46.7266 474.609C47.0026 474.88 47.1406 475.203 47.1406 475.578C47.1354 476.089 46.9036 476.505 46.4453 476.828C45.9922 477.146 45.3646 477.344 44.5625 477.422V478.148C45.9219 478.091 47.151 477.984 48.25 477.828L48.375 478.797C47.0469 479.016 45.6719 479.156 44.25 479.219C42.8333 479.281 41.276 479.312 39.5781 479.312L39.4219 478.25ZM39.7812 472.328H43.0781V471.203H44.5625V472.328H47.8594V473.359H39.7812V472.328ZM41.2812 480.172H50.5312V483.094H42.7969V484.156H51.0469V485.188H41.3125V482.141H49.0625V481.203H41.2812V480.172ZM41.8906 475.578C41.8906 475.859 42.0599 476.081 42.3984 476.242C42.7422 476.404 43.2135 476.484 43.8125 476.484C44.4062 476.484 44.8724 476.404 45.2109 476.242C45.5547 476.081 45.724 475.859 45.7188 475.578C45.724 475.312 45.5547 475.107 45.2109 474.961C44.8724 474.81 44.4062 474.734 43.8125 474.734C43.2083 474.734 42.737 474.81 42.3984 474.961C42.0599 475.107 41.8906 475.312 41.8906 475.578ZM66.125 479.328H53.3438V478.141H59.0156V476.656H54.9375V471.969H64.5469V473.141H56.4062V475.469H64.6406V476.656H60.4531V478.141H66.125V479.328ZM54.8594 482.781C54.8594 482.245 55.0521 481.786 55.4375 481.406C55.8229 481.026 56.3802 480.737 57.1094 480.539C57.8385 480.336 58.7083 480.234 59.7188 480.234C60.724 480.234 61.5859 480.336 62.3047 480.539C63.0286 480.737 63.5833 481.026 63.9688 481.406C64.3542 481.786 64.5469 482.245 64.5469 482.781C64.5469 483.318 64.3542 483.776 63.9688 484.156C63.5833 484.536 63.0286 484.826 62.3047 485.023C61.5859 485.227 60.724 485.328 59.7188 485.328C58.7083 485.328 57.8385 485.227 57.1094 485.023C56.3802 484.826 55.8229 484.536 55.4375 484.156C55.0521 483.776 54.8594 483.318 54.8594 482.781ZM56.3594 482.781C56.3542 483.229 56.6432 483.573 57.2266 483.812C57.8151 484.052 58.6458 484.167 59.7188 484.156C60.776 484.167 61.5964 484.052 62.1797 483.812C62.7682 483.573 63.0625 483.229 63.0625 482.781C63.0625 482.339 62.7682 481.997 62.1797 481.758C61.5964 481.513 60.776 481.391 59.7188 481.391C58.651 481.391 57.8229 481.513 57.2344 481.758C56.6458 481.997 56.3542 482.339 56.3594 482.781ZM76.2344 475.453C76.2344 476.224 76.3906 476.99 76.7031 477.75C77.0208 478.51 77.4583 479.19 78.0156 479.789C78.5781 480.388 79.2135 480.839 79.9219 481.141L79.1094 482.297C78.2917 481.938 77.5677 481.393 76.9375 480.664C76.3073 479.935 75.8281 479.099 75.5 478.156C75.1719 479.167 74.6927 480.07 74.0625 480.867C73.4323 481.664 72.7135 482.26 71.9062 482.656L71.0469 481.484C71.7396 481.161 72.3646 480.68 72.9219 480.039C73.4844 479.393 73.9245 478.667 74.2422 477.859C74.5651 477.052 74.7292 476.25 74.7344 475.453V473.969H71.5312V472.734H79.4219V473.969H76.2344V475.453ZM81.1875 471.328H82.6719V485.328H81.1875V471.328ZM96.5781 485.328H95.0938V481.484H87.0938V480.312H96.5781V485.328ZM85.1094 475.484C85.1094 474.839 85.2656 474.26 85.5781 473.75C85.8958 473.234 86.3333 472.833 86.8906 472.547C87.4479 472.255 88.0729 472.109 88.7656 472.109C89.3594 472.109 89.9036 472.216 90.3984 472.43C90.8984 472.638 91.3125 472.938 91.6406 473.328H95.0938V471.328H96.5781V479.578H95.0938V477.656H91.6406C91.3073 478.047 90.8906 478.349 90.3906 478.562C89.8958 478.771 89.3542 478.875 88.7656 478.875C88.0729 478.875 87.4479 478.732 86.8906 478.445C86.3333 478.154 85.8958 477.75 85.5781 477.234C85.2656 476.719 85.1094 476.135 85.1094 475.484ZM86.5312 475.484C86.5312 475.906 86.625 476.279 86.8125 476.602C87.0052 476.924 87.2708 477.177 87.6094 477.359C87.9531 477.536 88.3438 477.625 88.7812 477.625C89.1979 477.625 89.5755 477.536 89.9141 477.359C90.2526 477.177 90.5182 476.924 90.7109 476.602C90.9036 476.273 91 475.901 91 475.484C91 475.073 90.9036 474.708 90.7109 474.391C90.5182 474.068 90.2526 473.815 89.9141 473.633C89.5755 473.451 89.1979 473.359 88.7812 473.359C88.349 473.359 87.9609 473.451 87.6172 473.633C87.2734 473.815 87.0052 474.068 86.8125 474.391C86.625 474.708 86.5312 475.073 86.5312 475.484ZM95.0938 476.438V474.547H92.2969C92.3802 474.865 92.4219 475.177 92.4219 475.484C92.4219 475.812 92.3776 476.13 92.2891 476.438H95.0938Z" fill="#A3A3A4"/>
<path d="M49.6953 542.734V540.93H46.6719V542.875C46.6602 545.852 45.0898 548.711 41.4453 549.883L43.0156 552.273C45.582 551.406 47.3047 549.66 48.2422 547.434C49.1445 549.355 50.7031 550.82 53 551.617L54.5703 549.273C51.1484 548.219 49.6836 545.582 49.6953 542.734ZM44.9844 557.031C44.9844 559.668 47.7734 561.168 52.3203 561.156C56.8789 561.168 59.668 559.668 59.6797 557.031C59.668 554.406 56.8789 552.871 52.3203 552.883C47.7734 552.871 44.9844 554.406 44.9844 557.031ZM47.9609 557.031C47.9609 555.812 49.4961 555.203 52.3203 555.203C55.1562 555.203 56.6914 555.812 56.7031 557.031C56.6914 558.215 55.1562 558.836 52.3203 558.836C49.4961 558.836 47.9609 558.215 47.9609 557.031ZM52.625 546.18H56.6328V552.32H59.6094V539.828H56.6328V543.742H52.625V546.18ZM70.25 543.484V541.141H67.25V543.461C67.2266 546.367 65.668 549.227 62.0234 550.352L63.6875 552.719C66.1484 551.875 67.8477 550.199 68.7969 548.066C69.7227 550.012 71.3398 551.535 73.6719 552.32L75.2422 549.977C71.7852 548.863 70.2383 546.215 70.25 543.484ZM65.4453 560.781H80.0938V558.391H68.4922V553.914H65.4453V560.781ZM76.2969 555.461H79.2969V548.523H82.1797V545.992H79.2969V539.828H76.2969V555.461Z" fill="#1A1A1B"/>
<rect x="21.5" y="449.5" width="310" height="135" rx="15.5" stroke="black" stroke-opacity="0.1"/>
<g filter="url(#filter1_dd_58_3235)">
<rect x="20" y="704" width="320" height="56" rx="16" fill="white" shape-rendering="crispEdges"/>
<g opacity="0.3">
<path d="M88.9791 712.955C88.0225 712.402 86.7993 712.73 86.247 713.687L86.0565 714.017C85.5043 714.973 85.832 716.196 86.7886 716.749L90.9125 719.13C91.8691 719.682 93.0923 719.354 93.6446 718.397L93.8351 718.068C94.3873 717.111 94.0596 715.888 93.103 715.336L88.9791 712.955Z" fill="#1A1A1B"/>
<path d="M87.4683 718.406C86.5117 717.854 85.2885 718.181 84.7362 719.138L84.2884 719.913C84.1375 720.175 83.9294 720.399 83.6797 720.568L75.6873 725.994C74.4665 726.823 74.5328 728.643 75.8107 729.381L84.7093 734.518C85.9368 735.227 87.4916 734.469 87.6897 733.066L89.0264 723.594C89.0622 723.34 89.1465 723.096 89.2747 722.874L89.7577 722.037C90.31 721.08 89.9822 719.857 89.0257 719.305L87.4683 718.406Z" fill="#1A1A1B"/>
<path d="M73.4766 743.605H71.9062V749.02H70.6055V738.449H71.9062V742.539H73.4766V743.605ZM63.9844 739.48H65.2734V745.328C66.875 745.301 68.3789 745.141 69.7852 744.848L69.9258 745.949C69.0938 746.117 68.2637 746.234 67.4355 746.301C66.6074 746.367 65.7539 746.402 64.875 746.406H63.9844V739.48ZM77.4141 739.188C77.9688 739.188 78.4668 739.297 78.9082 739.516C79.3496 739.73 79.6953 740.033 79.9453 740.424C80.1992 740.811 80.3281 741.25 80.332 741.742C80.3281 742.238 80.1992 742.682 79.9453 743.072C79.6953 743.459 79.3496 743.762 78.9082 743.98C78.4668 744.199 77.9688 744.309 77.4141 744.309C76.8633 744.309 76.3652 744.199 75.9199 743.98C75.4785 743.762 75.1328 743.457 74.8828 743.066C74.6328 742.676 74.5078 742.234 74.5078 741.742C74.5078 741.25 74.6328 740.811 74.8828 740.424C75.1367 740.033 75.4844 739.73 75.9258 739.516C76.3672 739.297 76.8633 739.188 77.4141 739.188ZM74.0273 745.773C75.3242 745.773 76.5352 745.752 77.6602 745.709C78.7852 745.662 79.8555 745.566 80.8711 745.422L80.9766 746.371C79.9297 746.57 78.8613 746.699 77.7715 746.758C76.6855 746.812 75.4922 746.84 74.1914 746.84L74.0273 745.773ZM75.7969 741.742C75.7969 742.031 75.8652 742.285 76.002 742.504C76.1426 742.719 76.3359 742.885 76.582 743.002C76.8281 743.115 77.1055 743.172 77.4141 743.172C77.7266 743.172 78.0059 743.115 78.252 743.002C78.502 742.885 78.6973 742.719 78.8379 742.504C78.9824 742.285 79.0547 742.031 79.0547 741.742C79.0547 741.453 78.9824 741.201 78.8379 740.986C78.6973 740.771 78.502 740.605 78.252 740.488C78.0059 740.371 77.7266 740.312 77.4141 740.312C77.1055 740.312 76.8281 740.371 76.582 740.488C76.3359 740.605 76.1426 740.773 76.002 740.992C75.8652 741.207 75.7969 741.457 75.7969 741.742ZM81.5039 738.449H82.8047V749.055H81.5039V738.449ZM92.6484 742.48H94.2773V743.582H92.6484V749.043H91.3477V738.449H92.6484V742.48ZM84.7266 739.316H86.0156V741.965H88.5117V739.316H89.8125V746.559H84.7266V739.316ZM88.5117 745.492V742.984H86.0156V745.492H88.5117ZM103.02 742.469H104.648V743.535H103.02V749.055H101.719V738.449H103.02V742.469ZM95.1562 739.457H100.113V740.512H96.457V745.375C97.3164 745.371 98.0898 745.344 98.7773 745.293C99.4648 745.242 100.16 745.156 100.863 745.035L101.016 746.137C100.246 746.27 99.4883 746.357 98.7422 746.4C97.9961 746.443 97.0938 746.465 96.0352 746.465H95.1562V739.457Z" fill="#1A1A1B"/>
</g>
<g opacity="0.3">
<path fill-rule="evenodd" clip-rule="evenodd" d="M180 713.565C174.201 713.565 169.5 717.818 169.5 723.065C169.5 725.592 170.598 727.882 172.376 729.585L170.392 732.565C170.373 732.656 170.38 732.75 170.412 732.837C170.444 732.924 170.5 733.001 170.573 733.058C170.646 733.115 170.733 733.151 170.825 733.161C170.918 733.172 171.011 733.156 171.095 733.117L176.942 732.153C177.938 732.427 178.967 732.565 180 732.565C185.799 732.565 190.5 728.312 190.5 723.065C190.5 717.818 185.799 713.565 180 713.565Z" fill="#1A1A1B"/>
<path d="M173.215 741.672C173.215 742.23 173.293 742.771 173.449 743.295C173.605 743.818 173.846 744.293 174.17 744.719C174.494 745.145 174.898 745.484 175.383 745.738L174.645 746.699C174.168 746.449 173.76 746.105 173.42 745.668C173.08 745.23 172.811 744.725 172.611 744.15C172.416 744.771 172.148 745.322 171.809 745.803C171.469 746.283 171.059 746.66 170.578 746.934L169.828 745.973C170.305 745.695 170.703 745.33 171.023 744.877C171.348 744.42 171.588 743.916 171.744 743.365C171.9 742.814 171.98 742.25 171.984 741.672V741.379H170.133V740.312H171.984V738.824H173.215V740.312H175.043V741.379H173.215V741.672ZM175.605 738.637H176.836V742.598H177.926V738.449H179.168V749.043H177.926V743.676H176.836V748.527H175.605V738.637ZM186.059 740.242H182.262V741.25H185.754V742.27H182.262V743.289H182.672C183.609 743.289 184.385 743.271 184.998 743.236C185.615 743.201 186.23 743.133 186.844 743.031L186.973 744.062C186.293 744.176 185.607 744.252 184.916 744.291C184.229 744.326 183.344 744.344 182.262 744.344H181.84H180.938V739.211H186.059V740.242ZM181.98 747.051C181.98 746.637 182.123 746.281 182.408 745.984C182.697 745.684 183.113 745.457 183.656 745.305C184.203 745.148 184.852 745.07 185.602 745.07C186.34 745.07 186.98 745.148 187.523 745.305C188.07 745.461 188.49 745.688 188.783 745.984C189.076 746.281 189.223 746.637 189.223 747.051C189.223 747.465 189.076 747.82 188.783 748.117C188.49 748.414 188.07 748.641 187.523 748.797C186.98 748.953 186.34 749.031 185.602 749.031C184.852 749.031 184.203 748.953 183.656 748.797C183.113 748.641 182.697 748.414 182.408 748.117C182.123 747.82 181.98 747.465 181.98 747.051ZM183.281 747.051C183.277 747.367 183.475 747.609 183.873 747.777C184.271 747.941 184.848 748.023 185.602 748.023C186.34 748.023 186.91 747.939 187.312 747.771C187.719 747.604 187.922 747.363 187.922 747.051C187.922 746.738 187.719 746.498 187.312 746.33C186.91 746.162 186.34 746.078 185.602 746.078C184.848 746.078 184.271 746.162 183.873 746.33C183.475 746.498 183.277 746.738 183.281 747.051ZM187.863 738.461H189.176V744.918H187.863V738.461Z" fill="#1A1A1B"/>
</g>
<path fill-rule="evenodd" clip-rule="evenodd" d="M276 724.055C278.981 724.055 281.397 721.638 281.397 718.658C281.397 715.677 278.981 713.261 276 713.261C273.019 713.261 270.603 715.677 270.603 718.658C270.603 721.638 273.019 724.055 276 724.055ZM267.006 728.838C266.266 729.501 266.266 730.642 267.006 731.305C269.393 733.441 272.545 734.739 276 734.739C279.455 734.739 282.607 733.441 284.994 731.305C285.734 730.642 285.734 729.501 284.994 728.838C282.607 726.703 279.455 725.404 276 725.404C272.545 725.404 269.393 726.703 267.006 728.838Z" fill="#0030DF"/>
<path d="M270.475 747.766H260.795V746.676H270.475V747.766ZM261.592 739.434H269.631V740.477H268.084V743.852H269.596V744.883H261.627V743.852H263.115V740.477H261.592V739.434ZM266.795 743.852V740.477H264.416V743.852H266.795ZM280.846 747.812H271.166V746.734H275.338V745.012H272.314V741.543H278.408V740.23H272.291V739.176H279.697V742.574H273.615V743.945H279.943V745.012H276.627V746.734H280.846V747.812ZM290.373 743.91H289.072V738.449H290.373V743.91ZM281.713 742.609C281.955 742.609 282.357 742.605 282.92 742.598V740.137H281.994V739.129H287.748V740.137H286.799V742.439C287.248 742.408 287.713 742.363 288.193 742.305L288.252 743.242C286.576 743.508 284.443 743.641 281.854 743.641L281.713 742.609ZM283.271 744.355H290.373V747.086H284.584V747.918H290.713V748.949H283.295V746.137H289.084V745.375H283.271V744.355ZM284.174 742.568C284.635 742.557 285.096 742.539 285.557 742.516V740.137H284.174V742.568Z" fill="#0030DF"/>
</g>
</g>
<defs>
<filter id="filter0_dd_58_3235" x="-60" y="-31.8333" width="480" height="164" filterUnits="userSpaceOnUse" color-interpolation-filters="sRGB">
<feFlood flood-opacity="0" result="BackgroundImageFix"/>
<feColorMatrix in="SourceAlpha" type="matrix" values="0 0 0 0 0 0 0 0 0 0 0 0 0 0 0 0 0 0 127 0" result="hardAlpha"/>
<feOffset dy="4"/>
<feGaussianBlur stdDeviation="30"/>
<feComposite in2="hardAlpha" operator="out"/>
<feColorMatrix type="matrix" values="0 0 0 0 0.101961 0 0 0 0 0.101961 0 0 0 0 0.105882 0 0 0 0.02 0"/>
<feBlend mode="normal" in2="BackgroundImageFix" result="effect1_dropShadow_58_3235"/>
<feColorMatrix in="SourceAlpha" type="matrix" values="0 0 0 0 0 0 0 0 0 0 0 0 0 0 0 0 0 0 127 0" result="hardAlpha"/>
<feOffset dy="1"/>
<feComposite in2="hardAlpha" operator="out"/>
<feColorMatrix type="matrix" values="0 0 0 0 0.101961 0 0 0 0 0.101961 0 0 0 0 0.105882 0 0 0 0.02 0"/>
<feBlend mode="normal" in2="effect1_dropShadow_58_3235" result="effect2_dropShadow_58_3235"/>
<feBlend mode="normal" in="SourceGraphic" in2="effect2_dropShadow_58_3235" result="shape"/>
</filter>
<filter id="filter1_dd_58_3235" x="-28" y="656" width="432" height="168" filterUnits="userSpaceOnUse" color-interpolation-filters="sRGB">
<feFlood flood-opacity="0" result="BackgroundImageFix"/>
<feColorMatrix in="SourceAlpha" type="matrix" values="0 0 0 0 0 0 0 0 0 0 0 0 0 0 0 0 0 0 127 0" result="hardAlpha"/>
<feOffset dx="16" dy="16"/>
<feGaussianBlur stdDeviation="24"/>
<feComposite in2="hardAlpha" operator="out"/>
<feColorMatrix type="matrix" values="0 0 0 0 0.101961 0 0 0 0 0.101961 0 0 0 0 0.105882 0 0 0 0.04 0"/>
<feBlend mode="normal" in2="BackgroundImageFix" result="effect1_dropShadow_58_3235"/>
<feColorMatrix in="SourceAlpha" type="matrix" values="0 0 0 0 0 0 0 0 0 0 0 0 0 0 0 0 0 0 127 0" result="hardAlpha"/>
<feOffset/>
<feGaussianBlur stdDeviation="24"/>
<feComposite in2="hardAlpha" operator="out"/>
<feColorMatrix type="matrix" values="0 0 0 0 0.101961 0 0 0 0 0.101961 0 0 0 0 0.105882 0 0 0 0.02 0"/>
<feBlend mode="normal" in2="effect1_dropShadow_58_3235" result="effect2_dropShadow_58_3235"/>
<feBlend mode="normal" in="SourceGraphic" in2="effect2_dropShadow_58_3235" result="shape"/>
</filter>
<clipPath id="clip0_58_3235">
<rect width="360" height="780" fill="white"/>
</clipPath>
</defs>
</svg>
