<svg width="327" height="505" viewBox="0 0 327 505" fill="none" xmlns="http://www.w3.org/2000/svg">
<g filter="url(#filter0_d_85_1295)">
<rect x="123.5" width="80" height="80" rx="40" fill="#EFF2FF"/>
<circle cx="163.5" cy="30.9216" r="13.7171" fill="#99ACF2"/>
<path fill-rule="evenodd" clip-rule="evenodd" d="M140.641 63.0659C138.759 61.3819 138.759 58.4817 140.641 56.7976C146.708 51.3689 154.718 48.068 163.5 48.068C172.282 48.068 180.292 51.3689 186.359 56.7976C188.241 58.4817 188.241 61.3819 186.359 63.0659C180.292 68.4946 172.282 71.7955 163.5 71.7955C154.718 71.7955 146.708 68.4946 140.641 63.0659Z" fill="#99ACF2"/>
<path d="M141.141 95.8281H138.328V117.156H141.141V95.8281ZM122.391 110.617L124.078 112.727C127.113 110.969 129.094 108.859 130.312 106.422H133.805V116.219H136.594V96.2969H133.805V104.055H131.238C131.754 102.297 131.977 100.398 131.977 98.3594H123.562V100.773H129.012C128.602 104.957 126.703 108.062 122.391 110.617ZM160.219 95.8281H157.266V117.156H160.219V106.633H163.359V104.172H160.219V95.8281ZM143.273 101.406H155.812V99.0156H151.102V96.1562H148.102V99.0156H143.273V101.406ZM144.141 107.688C144.129 110.664 146.449 112.762 149.602 112.773C152.707 112.762 155.039 110.664 155.039 107.688C155.039 104.711 152.707 102.59 149.602 102.602C146.449 102.59 144.129 104.711 144.141 107.688ZM147 107.688C147 106.047 148.09 105.039 149.602 105.016C151.09 105.039 152.18 106.047 152.18 107.688C152.18 109.34 151.09 110.324 149.602 110.312C148.09 110.324 147 109.34 147 107.688ZM183.586 106.516H175.312V104.453H172.359V106.516H164.133V108.906H183.586V106.516ZM164.953 103.211L165.867 105.484C169.77 105.203 172.488 104.066 173.836 102.344C175.172 104.066 177.891 105.203 181.828 105.484L182.719 103.211C178.16 102.941 175.98 101.57 175.57 100.094H181.711V97.7266H175.312V95.8984H172.359V97.7266H166.008V100.094H172.09C171.668 101.57 169.5 102.941 164.953 103.211ZM166.359 113.523C166.359 115.879 169.137 117.168 173.836 117.156C178.512 117.168 181.242 115.879 181.266 113.523C181.242 111.191 178.512 109.902 173.836 109.914C169.137 109.902 166.359 111.191 166.359 113.523ZM169.406 113.523C169.395 112.562 170.848 112.117 173.836 112.117C176.754 112.117 178.254 112.562 178.266 113.523C178.254 114.508 176.754 114.953 173.836 114.953C170.848 114.953 169.395 114.508 169.406 113.523ZM204.328 106.516H196.055V104.453H193.102V106.516H184.875V108.906H204.328V106.516ZM185.695 103.211L186.609 105.484C190.512 105.203 193.23 104.066 194.578 102.344C195.914 104.066 198.633 105.203 202.57 105.484L203.461 103.211C198.902 102.941 196.723 101.57 196.312 100.094H202.453V97.7266H196.055V95.8984H193.102V97.7266H186.75V100.094H192.832C192.41 101.57 190.242 102.941 185.695 103.211ZM187.102 113.523C187.102 115.879 189.879 117.168 194.578 117.156C199.254 117.168 201.984 115.879 202.008 113.523C201.984 111.191 199.254 109.902 194.578 109.914C189.879 109.902 187.102 111.191 187.102 113.523ZM190.148 113.523C190.137 112.562 191.59 112.117 194.578 112.117C197.496 112.117 198.996 112.562 199.008 113.523C198.996 114.508 197.496 114.953 194.578 114.953C191.59 114.953 190.137 114.508 190.148 113.523Z" fill="#1A1A1B"/>
<path opacity="0.8" d="M31.6484 138.688H30.2734V142.719H31.6484V138.688ZM38.0547 139.422V138.109H36.5859V139.484C36.5703 141.586 35.2734 143.453 33.0391 144.219L33.8359 145.406C35.5312 144.797 36.75 143.539 37.3516 141.938C37.9609 143.344 39.0938 144.422 40.6328 144.984L41.4453 143.828C39.3203 143.133 38.0469 141.383 38.0547 139.422ZM35.3359 148.656C35.3281 150.344 37.125 151.305 40.0703 151.297C43 151.305 44.7969 150.344 44.8047 148.656C44.7969 146.961 43 145.977 40.0703 145.984C37.125 145.977 35.3281 146.961 35.3359 148.656ZM36.8047 148.656C36.7969 147.695 38.0156 147.141 40.0703 147.141C42.1094 147.141 43.3281 147.695 43.3359 148.656C43.3281 149.586 42.1094 150.133 40.0703 150.125C38.0156 150.133 36.7969 149.586 36.8047 148.656ZM40.3203 141.391H43.2734V145.594H44.7578V137.328H43.2734V140.172H40.3203V141.391ZM51.7734 139.891V138.188H50.3047V139.844C50.2969 141.93 49.0234 143.82 46.8047 144.578L47.6328 145.75C49.2734 145.141 50.4766 143.922 51.0859 142.344C51.7031 143.758 52.875 144.875 54.4453 145.422L55.2109 144.25C53.0781 143.531 51.7734 141.766 51.7734 139.891ZM49.0547 151.031H58.5234V149.828H50.5703V146.641H49.0547V151.031ZM56.4297 147.641H57.9141V142.797H59.9453V141.531H57.9141V137.312H56.4297V147.641ZM72.1016 144.5H63.8516V142.594H71.6641V141.422H63.8516V139.625H71.9609V138.406H62.3516V145.688H66.3828V148.422H60.7422V149.641H73.5547V148.422H67.8672V145.688H72.1016V144.5ZM85.5703 137.328H84.0859V145.766H85.5703V142.125H87.6016V140.906H85.5703V137.328ZM75.1172 144.875H81.7109V138.203H80.2422V140.297H76.5703V138.203H75.1172V144.875ZM76.3203 147.672H84.0859V151.328H85.5703V146.469H76.3203V147.672ZM76.5703 143.688V141.469H80.2422V143.688H76.5703ZM99.9922 137.328H98.5078V151.359H99.9922V137.328ZM88.8828 143.281C88.8828 146.305 90.3906 148.211 92.5078 148.203C94.5859 148.211 96.1172 146.305 96.1172 143.281C96.1172 140.289 94.5859 138.383 92.5078 138.375C90.3906 138.383 88.8828 140.289 88.8828 143.281ZM90.3203 143.281C90.3125 141.086 91.2031 139.711 92.5078 139.703C93.7891 139.711 94.6797 141.086 94.6797 143.281C94.6797 145.508 93.7891 146.875 92.5078 146.875C91.2031 146.875 90.3125 145.508 90.3203 143.281ZM103.992 138.688H102.617V142.719H103.992V138.688ZM121.367 137.328H119.961V151.328H121.367V137.328ZM109.289 147.281L110.133 148.344C112.109 147.188 113.445 145.766 114.273 144.141H117.008V150.641H118.414V137.688H117.008V142.953H114.789C115.219 141.734 115.406 140.43 115.414 139.062H109.945V140.281H113.938C113.68 143.164 112.258 145.516 109.289 147.281ZM134.07 137.328H132.602V151.328H134.07V144.234H136.32V143H134.07V137.328ZM123.086 140.734H131.383V139.516H128.023V137.516H126.539V139.516H123.086V140.734ZM123.805 145.016C123.805 146.938 125.273 148.273 127.289 148.281C129.297 148.273 130.766 146.938 130.773 145.016C130.766 143.109 129.297 141.766 127.289 141.766C125.273 141.766 123.805 143.109 123.805 145.016ZM125.227 145.016C125.219 143.82 126.094 142.992 127.289 142.984C128.477 142.992 129.344 143.82 129.352 145.016C129.344 146.234 128.477 147.047 127.289 147.031C126.094 147.047 125.219 146.234 125.227 145.016ZM153.695 144.344H140.883V145.547H146.648V148.266H148.148V145.547H153.695V144.344ZM142.289 140.5C142.281 142.242 144.266 143.328 147.273 143.328C150.281 143.328 152.25 142.242 152.242 140.5C152.25 138.75 150.281 137.664 147.273 137.656C144.266 137.664 142.281 138.75 142.289 140.5ZM142.492 151.031H152.273V149.812H143.977V146.922H142.492V151.031ZM143.883 140.5C143.867 139.461 145.227 138.852 147.273 138.844C149.328 138.852 150.672 139.461 150.68 140.5C150.672 141.508 149.328 142.125 147.273 142.125C145.227 142.125 143.867 141.508 143.883 140.5ZM158.602 138.141C156.492 138.133 154.922 139.523 154.93 141.5C154.922 143.453 156.492 144.852 158.602 144.844C159.758 144.852 160.75 144.422 161.406 143.703H164.914V145.594H166.398V137.328H164.914V139.297H161.414C160.758 138.57 159.766 138.133 158.602 138.141ZM156.352 141.5C156.344 140.242 157.289 139.406 158.602 139.422C159.875 139.406 160.82 140.242 160.82 141.5C160.82 142.727 159.875 143.594 158.602 143.578C157.289 143.594 156.344 142.727 156.352 141.5ZM156.977 148.609C156.969 150.312 158.781 151.305 161.711 151.297C164.625 151.305 166.438 150.312 166.445 148.609C166.438 146.898 164.625 145.898 161.711 145.906C158.781 145.898 156.969 146.898 156.977 148.609ZM158.43 148.609C158.422 147.609 159.656 147.055 161.711 147.047C163.766 147.055 164.992 147.609 164.992 148.609C164.992 149.57 163.766 150.133 161.711 150.125C159.656 150.133 158.422 149.57 158.43 148.609ZM162.094 140.484H164.914V142.484H162.094C162.188 142.18 162.242 141.844 162.242 141.5C162.242 141.141 162.188 140.797 162.094 140.484ZM177.242 138.688H175.555L172.742 140.531V142.172L175.445 140.406H175.508V150H177.242V138.688ZM184.055 150.156C186.672 150.156 188.203 148.047 188.211 144.344C188.203 140.664 186.648 138.531 184.055 138.531C181.453 138.531 179.898 140.664 179.898 144.344C179.898 148.047 181.438 150.156 184.055 150.156ZM181.617 144.344C181.617 141.531 182.531 139.992 184.055 139.984C185.57 139.992 186.492 141.531 186.492 144.344C186.492 147.164 185.578 148.672 184.055 148.672C182.523 148.672 181.609 147.164 181.617 144.344ZM201.18 137.344H199.695V139.078H195.852V140.266H199.695V141.734H195.852V142.922H199.695V147.688H201.18V137.344ZM190.336 145.688H191.414C193.469 145.672 195.367 145.586 197.586 145.172L197.43 143.953C195.43 144.328 193.664 144.43 191.805 144.438V138.312H190.336V145.688ZM192.055 151.031H201.539V149.828H193.555V146.781H192.055V151.031ZM218.914 137.344H217.43V139.828H214.391C214.484 139.359 214.539 138.859 214.539 138.344H208.133V139.562H212.93C212.664 141.82 210.727 143.602 207.414 144.547L208.008 145.703C211.039 144.836 213.141 143.25 214.047 141H217.43V142.703H213.898V143.922H217.43V145.625H218.914V137.344ZM209.586 148.516C209.586 150.219 211.43 151.266 214.305 151.266C217.141 151.266 219 150.219 219.008 148.516C219 146.82 217.141 145.789 214.305 145.781C211.43 145.789 209.586 146.82 209.586 148.516ZM211.055 148.516C211.055 147.516 212.305 146.945 214.305 146.953C216.266 146.945 217.516 147.516 217.523 148.516C217.516 149.5 216.266 150.07 214.305 150.078C212.305 150.07 211.055 149.5 211.055 148.516ZM232.742 137.328H231.258V141.531H229.07V142.766H231.258V145.812H232.742V137.328ZM221.086 139.906H229.289V138.719H225.93V137.203H224.461V138.719H221.086V139.906ZM221.898 143.047C221.898 144.555 223.273 145.555 225.195 145.562C227.117 145.555 228.477 144.555 228.477 143.047C228.477 141.578 227.117 140.547 225.195 140.547C223.273 140.547 221.898 141.578 221.898 143.047ZM223.32 143.047C223.32 142.227 224.078 141.68 225.195 141.688C226.297 141.68 227.055 142.227 227.055 143.047C227.055 143.898 226.297 144.43 225.195 144.438C224.078 144.43 223.32 143.898 223.32 143.047ZM223.508 151.156H232.742V146.5H223.508V151.156ZM224.977 149.953V147.672H231.289V149.953H224.977ZM239.758 146.578V145.906H238.32V146.578C238.312 147.93 237.336 149.391 235.539 150.031L236.289 151.125C237.609 150.641 238.531 149.711 239.039 148.609C239.469 149.75 240.32 150.742 241.664 151.25C242.945 150.719 243.781 149.695 244.227 148.57C244.711 149.711 245.656 150.648 247.039 151.125L247.773 150.031C245.945 149.438 244.984 148.031 244.992 146.578V145.906H243.539V146.578C243.539 147.656 242.906 148.992 241.625 149.812C240.352 149.055 239.758 147.781 239.758 146.578ZM235.18 141.422C235.188 143.359 236.766 144.703 238.914 144.703C241.055 144.703 242.633 143.359 242.633 141.422C242.633 139.461 241.055 138.117 238.914 138.109C236.766 138.117 235.188 139.461 235.18 141.422ZM236.633 141.422C236.625 140.195 237.586 139.367 238.914 139.375C240.227 139.367 241.18 140.195 241.18 141.422C241.18 142.641 240.227 143.469 238.914 143.469C237.586 143.469 236.625 142.641 236.633 141.422ZM245.023 145.312H246.508V137.344H245.023V145.312ZM251.773 145.719H250.305V151.156H259.836V145.719H258.352V147.203H251.773V145.719ZM248.727 144.844H261.492V143.609H248.727V144.844ZM249.414 141.578L249.977 142.75C252.227 142.438 254.211 141.367 255.117 139.867C256.016 141.359 257.992 142.438 260.258 142.75L260.789 141.578C258.109 141.25 255.875 139.688 255.867 138.078V137.484H254.352V138.078C254.344 139.734 252.125 141.227 249.414 141.578ZM251.773 149.969V148.359H258.352V149.969H251.773ZM274.18 137.328H272.695V151.328H274.18V137.328ZM263.414 147.766H264.586C266.797 147.773 269.047 147.602 271.523 147.094L271.32 145.844C269.078 146.297 266.93 146.477 264.883 146.484V138.688H263.414V147.766ZM287.289 137.328H285.805V151.359H287.289V143.969H289.539V142.75H287.289V137.328ZM276.977 147.875H278.102C280.703 147.883 282.562 147.812 284.758 147.422L284.57 146.172C282.57 146.531 280.812 146.633 278.461 146.641V139.875H283.523V138.672H276.977V147.875ZM291.805 150.109C292.406 150.102 292.906 149.609 292.914 149C292.906 148.391 292.406 147.891 291.805 147.891C291.195 147.891 290.688 148.391 290.695 149C290.688 149.609 291.195 150.102 291.805 150.109ZM38.3359 159.344H36.8516V162.984H34.6016V164.203H36.8516V165.938H34.6016V167.125H36.8516V170.016H38.3359V159.344ZM26.6797 162.172H34.5547V160.969H31.4297V159.328H29.9609V160.969H26.6797V162.172ZM27.4609 165.531C27.4609 167.141 28.7891 168.234 30.6797 168.234C32.5625 168.234 33.9062 167.141 33.9141 165.531C33.9062 163.93 32.5625 162.836 30.6797 162.844C28.7891 162.836 27.4609 163.93 27.4609 165.531ZM28.8516 165.531C28.8438 164.609 29.5938 164.016 30.6797 164C31.75 164.016 32.5078 164.609 32.5234 165.531C32.5078 166.484 31.75 167.078 30.6797 167.078C29.5938 167.078 28.8438 166.484 28.8516 165.531ZM29.1953 173.031H38.6484V171.828H30.6953V169.078H29.1953V173.031ZM52.0859 159.328H50.6172V166.531H52.0859V159.328ZM40.5391 165.281L41.2891 166.453C42.9609 165.883 44.2109 164.664 44.8438 163.133C45.4766 164.555 46.7031 165.656 48.3359 166.188L49.0703 165.031C46.9219 164.359 45.5781 162.656 45.5859 160.781V159.703H44.0703V160.781C44.0625 162.719 42.7266 164.555 40.5391 165.281ZM42.8984 168.375H50.6328V169.578H42.9453V173.188H52.5703V172H44.3828V170.703H52.1016V167.203H42.8984V168.375ZM59.3359 161.812V161.438H62.3359V160.234H54.7891V161.438H57.8203V161.828C57.8281 163.727 56.4844 165.594 54.3359 166.328L55.1016 167.5C56.7656 166.914 57.9922 165.68 58.6016 164.141C59.2109 165.523 60.375 166.648 61.9453 167.188L62.7109 166.031C60.5938 165.305 59.3281 163.578 59.3359 161.812ZM56.5078 169.609H64.5078V173.328H65.9922V168.406H56.5078V169.609ZM61.9141 164.109H64.5078V167.703H65.9922V159.328H64.5078V162.891H61.9141V164.109ZM79.7422 159.328H78.2578V173.359H79.7422V159.328ZM68.6328 165.281C68.6328 168.305 70.1406 170.211 72.2578 170.203C74.3359 170.211 75.8672 168.305 75.8672 165.281C75.8672 162.289 74.3359 160.383 72.2578 160.375C70.1406 160.383 68.6328 162.289 68.6328 165.281ZM70.0703 165.281C70.0625 163.086 70.9531 161.711 72.2578 161.703C73.5391 161.711 74.4297 163.086 74.4297 165.281C74.4297 167.508 73.5391 168.875 72.2578 168.875C70.9531 168.875 70.0625 167.508 70.0703 165.281ZM93.3047 160.672H83.3203V161.875H91.8203V162.047C91.8125 163.727 91.8125 165.711 91.2734 168.422L92.7734 168.578C93.2969 165.711 93.2969 163.773 93.3047 162.047V160.672ZM81.9766 171.438H94.7422V170.203H88.3047V165.266H86.8359V170.203H81.9766V171.438ZM111.805 159.328H110.383V164.891H108.711V159.594H107.305V172.641H108.711V166.141H110.383V173.328H111.805V159.328ZM99.5234 169.375L100.445 170.5C101.875 169.656 102.797 168.188 103.273 166.352C103.773 167.961 104.695 169.266 106.07 170.016L106.945 168.875C104.906 167.828 103.961 165.547 103.961 163.031V162.125H106.398V160.922H99.8984V162.125H102.523V163.031C102.523 165.812 101.57 168.227 99.5234 169.375ZM120.883 160.672H114.32V169.875H120.883V160.672ZM115.789 168.672V161.844H119.445V168.672H115.789ZM123.648 173.359H125.133V159.328H123.648V173.359ZM132.227 168.578V167.906H130.789V168.578C130.781 169.93 129.805 171.391 128.008 172.031L128.758 173.125C130.078 172.641 131 171.711 131.508 170.609C131.938 171.75 132.789 172.742 134.133 173.25C135.414 172.719 136.25 171.695 136.695 170.57C137.18 171.711 138.125 172.648 139.508 173.125L140.242 172.031C138.414 171.438 137.453 170.031 137.461 168.578V167.906H136.008V168.578C136.008 169.656 135.375 170.992 134.094 171.812C132.82 171.055 132.227 169.781 132.227 168.578ZM127.648 163.422C127.656 165.359 129.234 166.703 131.383 166.703C133.523 166.703 135.102 165.359 135.102 163.422C135.102 161.461 133.523 160.117 131.383 160.109C129.234 160.117 127.656 161.461 127.648 163.422ZM129.102 163.422C129.094 162.195 130.055 161.367 131.383 161.375C132.695 161.367 133.648 162.195 133.648 163.422C133.648 164.641 132.695 165.469 131.383 165.469C130.055 165.469 129.094 164.641 129.102 163.422ZM137.492 167.312H138.977V159.344H137.492V167.312ZM153.227 159.328H151.82V173.328H153.227V159.328ZM141.148 169.281L141.992 170.344C143.969 169.188 145.305 167.766 146.133 166.141H148.867V172.641H150.273V159.688H148.867V164.953H146.648C147.078 163.734 147.266 162.43 147.273 161.062H141.805V162.281H145.797C145.539 165.164 144.117 167.516 141.148 169.281ZM170.961 159.328H169.555V173.328H170.961V159.328ZM158.883 169.281L159.727 170.344C161.703 169.188 163.039 167.766 163.867 166.141H166.602V172.641H168.008V159.688H166.602V164.953H164.383C164.812 163.734 165 162.43 165.008 161.062H159.539V162.281H163.531C163.273 165.164 161.852 167.516 158.883 169.281ZM183.664 159.328H182.195V173.328H183.664V166.234H185.914V165H183.664V159.328ZM172.68 162.734H180.977V161.516H177.617V159.516H176.133V161.516H172.68V162.734ZM173.398 167.016C173.398 168.938 174.867 170.273 176.883 170.281C178.891 170.273 180.359 168.938 180.367 167.016C180.359 165.109 178.891 163.766 176.883 163.766C174.867 163.766 173.398 165.109 173.398 167.016ZM174.82 167.016C174.812 165.82 175.688 164.992 176.883 164.984C178.07 164.992 178.938 165.82 178.945 167.016C178.938 168.234 178.07 169.047 176.883 169.031C175.688 169.047 174.812 168.234 174.82 167.016ZM202.43 159.328H201.023V169.797H202.43V159.328ZM191.086 167.141H196.555V164.422H198.289V169.375H199.695V159.578H198.289V163.203H196.555V160.672H191.086V167.141ZM192.477 165.984V161.844H195.18V165.984H192.477ZM193.148 173.031H202.836V171.828H194.617V168.5H193.148V173.031ZM215.68 166.5H207.43V164.594H215.242V163.422H207.43V161.625H215.539V160.406H205.93V167.688H209.961V170.422H204.32V171.641H217.133V170.422H211.445V167.688H215.68V166.5ZM229.758 159.344H228.273V167.922H229.758V159.344ZM218.852 161.422H223.82V163.031H218.883V167.141H220.055C222.703 167.141 224.609 167.078 226.898 166.703L226.711 165.5C224.578 165.828 222.789 165.906 220.336 165.922V164.172H225.289V160.203H218.852V161.422ZM220.32 170.75C220.32 172.367 222.117 173.305 225.086 173.297C228.047 173.305 229.852 172.367 229.852 170.75C229.852 169.117 228.047 168.18 225.086 168.188C222.117 168.18 220.32 169.117 220.32 170.75ZM221.789 170.75C221.797 169.859 223.008 169.352 225.086 169.359C227.156 169.352 228.367 169.859 228.367 170.75C228.367 171.633 227.156 172.133 225.086 172.125C223.008 172.133 221.797 171.633 221.789 170.75ZM242.805 161.641H240.07V159.734H238.602V161.641H235.852V162.844H242.805V161.641ZM236.305 166.906C236.297 168.82 237.578 170.164 239.336 170.156C241.109 170.164 242.375 168.82 242.383 166.906C242.375 165.023 241.109 163.688 239.336 163.688C237.578 163.688 236.297 165.023 236.305 166.906ZM237.617 166.906C237.609 165.742 238.328 164.93 239.336 164.922C240.344 164.93 241.07 165.742 241.07 166.906C241.07 168.094 240.344 168.891 239.336 168.891C238.328 168.891 237.609 168.094 237.617 166.906ZM243.445 172.672H244.852V166.375H246.461V173.328H247.867V159.328H246.461V165.156H244.852V159.641H243.445V172.672ZM261.055 165.969H252.773V161.797H260.93V160.578H251.305V167.188H261.055V165.969ZM249.711 171.484H262.523V170.25H249.711V171.484ZM275.195 159.328H273.727V162.453H271.07V163.672H273.727V166.266H270.992V167.5H273.727V173.359H275.195V159.328ZM264.023 161.766H268.773V164.5H264.055V170.125H265.117C267.328 170.125 269.117 170.062 271.305 169.719L271.18 168.5C269.188 168.789 267.516 168.883 265.539 168.891V165.672H270.227V160.562H264.023V161.766ZM290.18 170.344H287.117V166.656C288.242 166.023 288.914 165.031 288.914 163.797C288.914 161.594 286.75 160.148 283.742 160.141C280.742 160.148 278.578 161.594 278.586 163.797C278.578 165.055 279.281 166.055 280.43 166.688V170.344H277.367V171.578H290.18V170.344ZM280.023 163.797C280.023 162.289 281.547 161.328 283.742 161.328C285.922 161.328 287.469 162.289 287.477 163.797C287.469 165.297 285.922 166.273 283.742 166.281C281.547 166.273 280.023 165.297 280.023 163.797ZM281.898 170.344V167.234C282.461 167.367 283.086 167.438 283.742 167.438C284.414 167.438 285.047 167.367 285.617 167.234V170.344H281.898ZM292.18 167.234V168.734C292.672 168.117 293.297 167.797 293.992 167.797C295.188 167.797 296.273 168.688 297.492 168.688C298.195 168.688 298.828 168.391 299.352 167.812V166.312C298.859 166.93 298.234 167.25 297.523 167.25C296.336 167.25 295.258 166.359 294.039 166.359C293.336 166.359 292.703 166.656 292.18 167.234Z" fill="#1A1A1B"/>
<rect x="4" y="201" width="311" height="136" rx="16" fill="white"/>
<path d="M34.1875 223.344H32.7031V227.125H30.0312V228.328H32.7031V233.594H34.1875V223.344ZM22.5312 230.672L23.2969 231.875C24.9609 231.281 26.1875 230.047 26.7969 228.5C27.4062 229.891 28.5703 231.016 30.1406 231.562L30.9062 230.375C28.7891 229.672 27.5234 227.914 27.5312 226.172V225.625H30.5312V224.406H22.9844V225.625H26.0156V226.172C26.0234 228.102 24.6797 229.945 22.5312 230.672ZM25.0938 237.031H34.5625V235.828H26.5781V232.672H25.0938V237.031ZM49.1406 230.406H36.3281V231.609H42.1094V234.328H43.5781V231.609H49.1406V230.406ZM37.9219 237.031H47.7188V235.828H39.4062V233H37.9219V237.031ZM37.9688 228.953H47.4844V223.984H37.9688V228.953ZM39.4219 227.781V225.156H46.0156V227.781H39.4219ZM66.875 230.656H54.0625V231.844H59.8438V234.422H61.3125V231.844H66.875V230.656ZM55.6562 237.031H65.4531V235.828H57.125V233.203H55.6562V237.031ZM55.75 229.422H65.1875V223.766H63.7031V225.469H57.2188V223.766H55.75V229.422ZM57.2188 228.234V226.578H63.7031V228.234H57.2188ZM71.6562 224.375C69.5625 224.383 68.0703 226.289 68.0781 229.281C68.0703 232.305 69.5625 234.211 71.6562 234.203C73.75 234.211 75.2422 232.305 75.25 229.281C75.2422 226.289 73.75 224.383 71.6562 224.375ZM69.5 229.281C69.4922 227.086 70.3828 225.711 71.6562 225.703C72.9531 225.711 73.8281 227.086 73.8281 229.281C73.8281 231.508 72.9531 232.875 71.6562 232.875C70.3828 232.875 69.4922 231.508 69.5 229.281ZM77.3281 237.328H78.8125V232.141H80.9844V230.922H78.8125V228.016H80.9844V226.75H78.8125V223.328H77.3281V237.328Z" fill="#A3A3A4"/>
<path d="M35.9062 292.789V292.086H32.8359V292.789C32.8125 295.051 30.3281 297.535 25.5938 298.156L26.7188 300.453C30.3281 299.949 32.9883 298.391 34.3594 296.281C35.7305 298.391 38.3906 299.949 42.0234 300.453L43.1484 298.156C38.3906 297.535 35.9062 295.062 35.9062 292.789ZM24.6328 303.945H32.8594V306.055H26.7891V308.398H38.7422V313.156H41.7188V306.055H35.8125V303.945H44.0859V301.578H24.6328V303.945ZM62.2969 291.828H59.2969V304.648H62.2969V299.469H65.1797V297.055H62.2969V291.828ZM46.0078 303.523H56.3438V293.164H53.3438V296H48.9844V293.164H46.0078V303.523ZM47.9297 307.953H59.2969V313.156H62.2969V305.586H47.9297V307.953ZM48.9844 301.156V298.32H53.3438V301.156H48.9844ZM72.0703 292.742C68.7891 292.719 66.375 294.863 66.3984 297.781C66.375 300.758 68.7891 302.891 72.0703 302.891C74.8125 302.891 77.0039 301.297 77.5547 298.953H81.1172V303.289H84.0938V291.828H81.1172V296.562H77.543C76.957 294.277 74.7891 292.719 72.0703 292.742ZM69.2344 297.781C69.2227 296.188 70.3945 295.215 72.0703 295.227C73.6875 295.215 74.8477 296.188 74.8594 297.781C74.8477 299.375 73.6875 300.383 72.0703 300.383C70.3945 300.383 69.2227 299.375 69.2344 297.781ZM69.8672 312.922H84.0938V304.227H81.1172V306.289H72.8203V304.227H69.8672V312.922ZM72.8203 310.508V308.586H81.1172V310.508H72.8203Z" fill="#1A1A1B"/>
<rect x="4.5" y="201.5" width="310" height="135" rx="15.5" stroke="black" stroke-opacity="0.1"/>
<rect x="4" y="361" width="311" height="136" rx="16" fill="white"/>
<path d="M33.5312 386.812H35.5312V388.078H33.5312V391.578H32.0469V383.328H33.5312V386.812ZM22.4219 390.25C23.7656 390.25 24.9844 390.237 26.0781 390.211V389.422C25.2604 389.349 24.6224 389.154 24.1641 388.836C23.7057 388.513 23.4792 388.094 23.4844 387.578C23.4792 387.203 23.612 386.88 23.8828 386.609C24.1536 386.333 24.5391 386.125 25.0391 385.984C25.5443 385.839 26.1354 385.766 26.8125 385.766C27.4844 385.766 28.0703 385.839 28.5703 385.984C29.0703 386.125 29.4557 386.333 29.7266 386.609C30.0026 386.88 30.1406 387.203 30.1406 387.578C30.1354 388.089 29.9036 388.505 29.4453 388.828C28.9922 389.146 28.3646 389.344 27.5625 389.422V390.148C28.9219 390.091 30.151 389.984 31.25 389.828L31.375 390.797C30.0469 391.016 28.6719 391.156 27.25 391.219C25.8333 391.281 24.276 391.312 22.5781 391.312L22.4219 390.25ZM22.7812 384.328H26.0781V383.203H27.5625V384.328H30.8594V385.359H22.7812V384.328ZM24.2812 392.172H33.5312V395.094H25.7969V396.156H34.0469V397.188H24.3125V394.141H32.0625V393.203H24.2812V392.172ZM24.8906 387.578C24.8906 387.859 25.0599 388.081 25.3984 388.242C25.7422 388.404 26.2135 388.484 26.8125 388.484C27.4062 388.484 27.8724 388.404 28.2109 388.242C28.5547 388.081 28.724 387.859 28.7188 387.578C28.724 387.312 28.5547 387.107 28.2109 386.961C27.8724 386.81 27.4062 386.734 26.8125 386.734C26.2083 386.734 25.737 386.81 25.3984 386.961C25.0599 387.107 24.8906 387.312 24.8906 387.578ZM49.125 391.328H36.3438V390.141H42.0156V388.656H37.9375V383.969H47.5469V385.141H39.4062V387.469H47.6406V388.656H43.4531V390.141H49.125V391.328ZM37.8594 394.781C37.8594 394.245 38.0521 393.786 38.4375 393.406C38.8229 393.026 39.3802 392.737 40.1094 392.539C40.8385 392.336 41.7083 392.234 42.7188 392.234C43.724 392.234 44.5859 392.336 45.3047 392.539C46.0286 392.737 46.5833 393.026 46.9688 393.406C47.3542 393.786 47.5469 394.245 47.5469 394.781C47.5469 395.318 47.3542 395.776 46.9688 396.156C46.5833 396.536 46.0286 396.826 45.3047 397.023C44.5859 397.227 43.724 397.328 42.7188 397.328C41.7083 397.328 40.8385 397.227 40.1094 397.023C39.3802 396.826 38.8229 396.536 38.4375 396.156C38.0521 395.776 37.8594 395.318 37.8594 394.781ZM39.3594 394.781C39.3542 395.229 39.6432 395.573 40.2266 395.812C40.8151 396.052 41.6458 396.167 42.7188 396.156C43.776 396.167 44.5964 396.052 45.1797 395.812C45.7682 395.573 46.0625 395.229 46.0625 394.781C46.0625 394.339 45.7682 393.997 45.1797 393.758C44.5964 393.513 43.776 393.391 42.7188 393.391C41.651 393.391 40.8229 393.513 40.2344 393.758C39.6458 393.997 39.3542 394.339 39.3594 394.781ZM59.2344 387.453C59.2344 388.224 59.3906 388.99 59.7031 389.75C60.0208 390.51 60.4583 391.19 61.0156 391.789C61.5781 392.388 62.2135 392.839 62.9219 393.141L62.1094 394.297C61.2917 393.938 60.5677 393.393 59.9375 392.664C59.3073 391.935 58.8281 391.099 58.5 390.156C58.1719 391.167 57.6927 392.07 57.0625 392.867C56.4323 393.664 55.7135 394.26 54.9062 394.656L54.0469 393.484C54.7396 393.161 55.3646 392.68 55.9219 392.039C56.4844 391.393 56.9245 390.667 57.2422 389.859C57.5651 389.052 57.7292 388.25 57.7344 387.453V385.969H54.5312V384.734H62.4219V385.969H59.2344V387.453ZM64.1875 383.328H65.6719V397.328H64.1875V383.328ZM79.5781 397.328H78.0938V393.484H70.0938V392.312H79.5781V397.328ZM68.1094 387.484C68.1094 386.839 68.2656 386.26 68.5781 385.75C68.8958 385.234 69.3333 384.833 69.8906 384.547C70.4479 384.255 71.0729 384.109 71.7656 384.109C72.3594 384.109 72.9036 384.216 73.3984 384.43C73.8984 384.638 74.3125 384.938 74.6406 385.328H78.0938V383.328H79.5781V391.578H78.0938V389.656H74.6406C74.3073 390.047 73.8906 390.349 73.3906 390.562C72.8958 390.771 72.3542 390.875 71.7656 390.875C71.0729 390.875 70.4479 390.732 69.8906 390.445C69.3333 390.154 68.8958 389.75 68.5781 389.234C68.2656 388.719 68.1094 388.135 68.1094 387.484ZM69.5312 387.484C69.5312 387.906 69.625 388.279 69.8125 388.602C70.0052 388.924 70.2708 389.177 70.6094 389.359C70.9531 389.536 71.3438 389.625 71.7812 389.625C72.1979 389.625 72.5755 389.536 72.9141 389.359C73.2526 389.177 73.5182 388.924 73.7109 388.602C73.9036 388.273 74 387.901 74 387.484C74 387.073 73.9036 386.708 73.7109 386.391C73.5182 386.068 73.2526 385.815 72.9141 385.633C72.5755 385.451 72.1979 385.359 71.7812 385.359C71.349 385.359 70.9609 385.451 70.6172 385.633C70.2734 385.815 70.0052 386.068 69.8125 386.391C69.625 386.708 69.5312 387.073 69.5312 387.484ZM78.0938 388.438V386.547H75.2969C75.3802 386.865 75.4219 387.177 75.4219 387.484C75.4219 387.812 75.3776 388.13 75.2891 388.438H78.0938Z" fill="#A3A3A4"/>
<path d="M32.6953 454.734V452.93H29.6719V454.875C29.6602 457.852 28.0898 460.711 24.4453 461.883L26.0156 464.273C28.582 463.406 30.3047 461.66 31.2422 459.434C32.1445 461.355 33.7031 462.82 36 463.617L37.5703 461.273C34.1484 460.219 32.6836 457.582 32.6953 454.734ZM27.9844 469.031C27.9844 471.668 30.7734 473.168 35.3203 473.156C39.8789 473.168 42.668 471.668 42.6797 469.031C42.668 466.406 39.8789 464.871 35.3203 464.883C30.7734 464.871 27.9844 466.406 27.9844 469.031ZM30.9609 469.031C30.9609 467.812 32.4961 467.203 35.3203 467.203C38.1562 467.203 39.6914 467.812 39.7031 469.031C39.6914 470.215 38.1562 470.836 35.3203 470.836C32.4961 470.836 30.9609 470.215 30.9609 469.031ZM35.625 458.18H39.6328V464.32H42.6094V451.828H39.6328V455.742H35.625V458.18ZM53.25 455.484V453.141H50.25V455.461C50.2266 458.367 48.668 461.227 45.0234 462.352L46.6875 464.719C49.1484 463.875 50.8477 462.199 51.7969 460.066C52.7227 462.012 54.3398 463.535 56.6719 464.32L58.2422 461.977C54.7852 460.863 53.2383 458.215 53.25 455.484ZM48.4453 472.781H63.0938V470.391H51.4922V465.914H48.4453V472.781ZM59.2969 467.461H62.2969V460.523H65.1797V457.992H62.2969V451.828H59.2969V467.461Z" fill="#1A1A1B"/>
<rect x="4.5" y="361.5" width="310" height="135" rx="15.5" stroke="black" stroke-opacity="0.1"/>
</g>
<defs>
<filter id="filter0_d_85_1295" x="0" y="0" width="327" height="505" filterUnits="userSpaceOnUse" color-interpolation-filters="sRGB">
<feFlood flood-opacity="0" result="BackgroundImageFix"/>
<feColorMatrix in="SourceAlpha" type="matrix" values="0 0 0 0 0 0 0 0 0 0 0 0 0 0 0 0 0 0 127 0" result="hardAlpha"/>
<feOffset dy="4"/>
<feGaussianBlur stdDeviation="2"/>
<feComposite in2="hardAlpha" operator="out"/>
<feColorMatrix type="matrix" values="0 0 0 0 0 0 0 0 0 0 0 0 0 0 0 0 0 0 0.25 0"/>
<feBlend mode="normal" in2="BackgroundImageFix" result="effect1_dropShadow_85_1295"/>
<feBlend mode="normal" in="SourceGraphic" in2="effect1_dropShadow_85_1295" result="shape"/>
</filter>
</defs>
</svg>
