<svg width="48" height="48" viewBox="0 0 48 48" fill="none" xmlns="http://www.w3.org/2000/svg">
<path d="M39.1019 15.9897L31.7208 8.60373L23.863 16.4667L3.45763 21.5896C2.09423 21.9322 1.25745 23.2996 1.56239 24.6733C2.21495 27.6112 4.07793 32.7477 9.38794 38.0622C14.7437 43.4215 20.2161 45.5679 23.3436 46.4115C24.7601 46.7926 26.2078 45.9168 26.5346 44.4858L31.2431 23.8526L39.1009 15.9897H39.1019Z" fill="white"/>
<path d="M45.2781 12.3901L35.318 2.4234C34.0881 1.19269 32.094 1.19269 30.8641 2.4234L30.4314 2.85641C29.2015 4.08712 29.2015 6.0825 30.4314 7.31321L40.3915 17.2799C41.6214 18.5106 43.6155 18.5106 44.8454 17.2799L45.2781 16.8468C46.5081 15.6161 46.5081 13.6208 45.2781 12.3901Z" fill="white"/>
<g opacity="0.5">
<path d="M21.1819 26.4584H26.2057L21.1809 21.4302L21.1819 26.4584Z" fill="#A3A3A4"/>
<path d="M26.2057 27.0645H21.1819V32.0926L26.2057 27.0645Z" fill="#A3A3A4"/>
<path d="M20.5752 27.0645H12.7132C11.2957 27.0645 10.1404 28.2038 10.1206 29.6223C10.0998 31.0699 11.2665 32.254 12.7132 32.254H20.5752V27.0645Z" fill="#A3A3A4"/>
<path d="M20.5752 26.4583V21.3084L15.4286 26.4583H20.5752Z" fill="#A3A3A4"/>
<path d="M20.5752 32.8612H15.106V34.7472C15.106 36.2438 16.307 37.4623 17.8016 37.4831C19.3273 37.505 20.5752 36.273 20.5752 34.7472V32.8612Z" fill="#A3A3A4"/>
</g>
</svg>
